<svg width="13" height="13" viewBox="0 0 13 13" fill="none" xmlns="http://www.w3.org/2000/svg">
<path fill-rule="evenodd" clip-rule="evenodd" d="M5.40099 5.78969L4.19481 4.58351C2.93501 4.5567 1.80924 4.08763 1.04532 3.2433C0.294808 2.45258 -0.0670474 1.39381 0.026767 0.281443C0.026767 0.147423 0.133984 0.0536082 0.254602 0.0402062C0.415427 0.0134021 0.589654 0 0.750478 0C2.89481 0 4.52986 1.79588 4.57007 4.22165L5.78965 5.44124C5.65563 4.99897 5.60203 4.5567 5.61543 4.10103C5.65563 3.01546 6.15151 2.01031 6.99584 1.2866C7.08965 1.20619 7.23708 1.19278 7.33089 1.2732C8.17522 1.91649 8.6845 2.85464 8.75151 3.9268C8.83192 5.07938 8.40306 6.21856 7.53192 7.1701L9.47522 9.1134C9.3412 8.67113 9.28759 8.22887 9.30099 7.7732C9.3412 6.68763 9.83708 5.68247 10.6814 4.95876C10.7752 4.87835 10.9226 4.86495 11.0165 4.94536C11.8608 5.58866 12.3701 6.5268 12.4371 7.59897C12.5175 8.75155 12.0886 9.89072 11.2175 10.8423L12.7721 12.4237C12.8793 12.5309 12.8793 12.6918 12.7721 12.799C12.7185 12.8526 12.6515 12.8794 12.5845 12.8794C12.5175 12.8794 12.4505 12.8526 12.3969 12.799L10.8288 11.2309C9.9577 12.0082 8.91233 12.4505 7.85357 12.4505C6.68759 12.4505 5.62883 11.9278 4.91852 11.0165C4.85151 10.9227 4.85151 10.7753 4.93192 10.6814C5.68244 9.81031 6.768 9.30103 7.90718 9.30103C8.29584 9.30103 8.6979 9.35464 9.07316 9.47526L7.14326 7.54536C6.27213 8.32268 5.22677 8.76495 4.168 8.76495C3.00202 8.76495 1.94326 8.24227 1.24635 7.33093C1.17934 7.23711 1.17934 7.08969 1.25976 6.99588C2.01027 6.12474 3.09584 5.61546 4.23501 5.61546C4.62367 5.61546 5.02574 5.66907 5.40099 5.78969ZM1.83605 7.18351C2.41233 7.85361 3.27007 8.22887 4.18141 8.22887C5.09275 8.22887 6.00409 7.86701 6.78141 7.1701C6.04429 6.5134 5.14635 6.15155 4.24842 6.15155C3.32367 6.15155 2.47934 6.5134 1.83605 7.18351ZM7.85357 11.9144C6.94223 11.9144 6.0979 11.5392 5.50821 10.8691C6.15151 10.199 6.99584 9.83711 7.92058 9.83711C8.81852 9.83711 9.71646 10.199 10.4536 10.8557C9.68965 11.5392 8.76491 11.9144 7.85357 11.9144ZM11.901 7.63918C11.8474 6.79485 11.4721 6.04433 10.8556 5.50825C10.2257 6.11134 9.86388 6.91546 9.83708 7.8C9.79687 8.75155 10.1587 9.68969 10.8556 10.467C11.5927 9.62268 11.968 8.63093 11.901 7.63918ZM7.18347 1.83608C7.79996 2.37216 8.17522 3.12268 8.22883 3.96701C8.29584 4.95876 7.92058 5.95052 7.18347 6.79485C6.48656 6.01753 6.12471 5.07938 6.16491 4.12784C6.19172 3.2433 6.55357 2.43918 7.18347 1.83608ZM4.03398 4.04742C3.92677 2.02371 2.54635 0.536082 0.750478 0.536082C0.683468 0.536082 0.616458 0.536082 0.549447 0.549484C0.536045 1.42062 0.844293 2.23814 1.43398 2.88144C2.07728 3.57835 2.98862 3.98041 4.03398 4.04742Z" fill="white"/>
</svg>
