<svg width="14" height="14" viewBox="0 0 14 14" fill="none" xmlns="http://www.w3.org/2000/svg">
<path fill-rule="evenodd" clip-rule="evenodd" d="M2.5974 11.7231C2.623 11.8279 2.6547 11.8823 2.5974 11.7231V11.7231Z" fill="black"/>
<mask id="mask0" mask-type="alpha" maskUnits="userSpaceOnUse" x="0" y="0" width="13" height="14">
<path fill-rule="evenodd" clip-rule="evenodd" d="M0 0.0302734H12.5192V13.3255H0V0.0302734Z" fill="white"/>
</mask>
<g mask="url(#mask0)">
<path fill-rule="evenodd" clip-rule="evenodd" d="M9.92013 11.9423C9.93333 11.9086 9.94863 11.8753 9.96393 11.8425C9.94573 11.9032 9.92953 11.9453 9.92013 11.9423ZM9.83785 12.0415C9.86445 12.0066 9.89105 11.9742 9.91775 11.9417C9.87955 11.9992 9.84585 12.0452 9.83785 12.0415ZM9.78244 12.0783C9.80494 12.0607 9.83024 12.0406 9.85894 12.0183C9.86234 12.025 9.82894 12.0489 9.78244 12.0783ZM3.0157 12.1134H3.01267H2.97024C2.96276 12.1128 2.95645 12.1123 2.95091 12.1118C2.93648 12.1086 2.92548 12.1062 2.92782 12.1073C2.89909 12.1016 2.86497 12.0825 2.83567 12.0805C2.817 12.0702 2.79685 12.0596 2.7763 12.0467C2.76315 12.0389 2.75318 12.0331 2.74488 12.0284C2.72064 12.0069 2.68433 11.9733 2.65912 11.9473C2.6557 11.9409 2.65161 11.9331 2.646 11.9225C2.63085 11.8922 2.61267 11.8649 2.59751 11.8377C2.59588 11.8347 2.59473 11.8327 2.5933 11.8301C2.58433 11.7998 2.57497 11.764 2.57327 11.7589C2.56721 11.7346 2.56721 11.7013 2.55812 11.6801C2.56491 11.6981 2.57 11.7121 2.57385 11.7231C2.57033 11.7083 2.56721 11.6904 2.56721 11.674V11.474V10.1225V5.5892C2.56721 4.75665 2.583 3.92014 2.57567 3.08617H4.86721H9.49145H9.93994V5.99829V11.0437V11.6286V11.671V11.7165C9.94006 11.7222 9.94027 11.727 9.94045 11.7314C9.93576 11.7535 9.92573 11.7989 9.91654 11.8326C9.90921 11.847 9.90185 11.8611 9.89448 11.874C9.89294 11.8771 9.87791 11.904 9.86276 11.9291C9.85024 11.9438 9.83818 11.9576 9.82479 11.971C9.80658 11.9892 9.78842 12.0073 9.76721 12.0256C9.76503 12.0274 9.76358 12.0287 9.76164 12.0304C9.73506 12.0465 9.70267 12.0645 9.69751 12.068C9.68645 12.0735 9.67606 12.079 9.66567 12.0846C9.66412 12.0851 9.66276 12.0856 9.66115 12.0862C9.6277 12.0939 9.5943 12.1035 9.56085 12.1119C9.54215 12.113 9.52239 12.1134 9.50055 12.1134H6.3157C5.2157 12.1134 4.1157 12.1316 3.0157 12.1134ZM3.00497 12.1521C3.02257 12.1545 3.04117 12.157 3.06097 12.1596C3.06097 12.1626 3.03747 12.1587 3.00497 12.1521ZM2.63556 11.9112C2.64406 11.9003 2.68876 11.9607 2.72266 12.0099C2.66726 11.9604 2.62966 11.9214 2.63556 11.9112ZM2.6249 11.8594C2.5924 11.8004 2.602 11.8165 2.6249 11.8594V11.8594ZM2.6613 11.9333C2.6529 11.9333 2.6324 11.8879 2.6106 11.8333C2.6423 11.8806 2.6727 11.9305 2.6613 11.9333ZM4.75206 1.4922V1.39526V1.38314C4.75206 1.37265 4.75488 1.35598 4.75639 1.34677C4.75718 1.34389 4.75782 1.34159 4.75812 1.34068C4.75848 1.33901 4.75858 1.33804 4.75888 1.33653C4.76109 1.33277 4.76712 1.32229 4.77397 1.31071C4.78815 1.29865 4.80382 1.28426 4.81506 1.27041C4.81642 1.26968 4.81767 1.26907 4.81888 1.26847C4.81803 1.26856 4.81718 1.26868 4.81639 1.26871C4.81679 1.2682 4.81721 1.26768 4.81761 1.2672C4.82021 1.26671 4.82336 1.26604 4.82691 1.26523C4.82715 1.26517 4.82764 1.26492 4.82782 1.26492C4.88309 1.23495 4.88306 1.23956 4.86667 1.2495C4.83933 1.25662 4.84727 1.25404 4.86312 1.25162C4.85779 1.25468 4.85133 1.25792 4.84464 1.26083C4.85751 1.25747 4.87206 1.25341 4.88527 1.2495C4.88855 1.24944 4.8917 1.24947 4.89448 1.24977H4.92782H5.39448H7.00055H7.5793C7.61088 1.24977 7.64233 1.25183 7.67188 1.25047C7.65261 1.24301 7.64691 1.23404 7.69145 1.24677C7.69564 1.24817 7.7003 1.24941 7.70473 1.25077C7.71076 1.25104 7.71697 1.2512 7.72191 1.25107C7.72312 1.25192 7.7243 1.25277 7.72554 1.25359C7.724 1.25441 7.72227 1.25498 7.72058 1.25553C7.72512 1.25677 7.72942 1.2575 7.73391 1.25853C7.73821 1.26092 7.74242 1.26311 7.74676 1.26514C7.76012 1.27489 7.78667 1.29201 7.79751 1.30132C7.79903 1.30265 7.80052 1.30407 7.80191 1.30556C7.80715 1.31641 7.81251 1.32707 7.8163 1.33368C7.81712 1.33607 7.81779 1.33804 7.81873 1.34068C7.8193 1.34311 7.81994 1.34589 7.82051 1.3485C7.82058 1.34653 7.82091 1.34429 7.82127 1.34204C7.82421 1.34692 7.82658 1.35123 7.828 1.35471C7.8273 1.35783 7.82667 1.36226 7.82609 1.36792C7.82564 1.36756 7.82524 1.36753 7.82479 1.36695C7.82512 1.36844 7.82542 1.36986 7.82579 1.37132C7.82542 1.37562 7.82506 1.38038 7.82479 1.38614V1.41041V1.75283V1.84677H4.81873H4.75206V1.4922ZM4.82348 1.32064C4.84238 1.29084 4.85738 1.27004 4.86038 1.27314C4.86738 1.27654 4.86268 1.28794 4.85188 1.30304C4.85748 1.29964 4.86298 1.29644 4.86868 1.29314C4.85648 1.30504 4.84448 1.31644 4.83338 1.32614C4.82208 1.33904 4.80868 1.35314 4.79448 1.36734C4.79878 1.36034 4.80298 1.35334 4.80718 1.34664C4.79368 1.35574 4.78358 1.35954 4.78038 1.35304C4.78038 1.34964 4.79898 1.33624 4.82348 1.32064ZM7.86347 1.39102C7.85527 1.37822 7.84217 1.35372 7.82437 1.31552C7.83367 1.32582 7.84177 1.33652 7.84867 1.34682C7.85257 1.35912 7.85747 1.37382 7.86347 1.39102ZM12.5187 2.45283C12.5035 2.12556 12.2521 1.84677 11.9126 1.84677H10.7854H9.03691V1.78314C9.03691 1.47101 9.05509 1.16192 8.93085 0.867984C8.71567 0.358893 8.23082 0.0437415 7.67933 0.0316202C7.53385 0.0285899 7.38842 0.0316202 7.24297 0.0316202H5.5157C4.93691 0.0316202 4.32479 -0.0168646 3.89752 0.471014C3.67024 0.72859 3.54903 1.04071 3.54297 1.38314C3.53994 1.47704 3.54297 1.57404 3.54297 1.66798V1.84677H2.00055C1.54297 1.84677 1.08236 1.83465 0.624788 1.84677H0.606606C0.288424 1.84677 -0.0146062 2.12556 0.000545287 2.45283C0.0126665 2.78007 0.264182 3.05889 0.606606 3.05889H1.35812V5.10738V9.75586V11.3286V11.6498C1.36115 12.1377 1.56418 12.6195 1.946 12.9316C2.27933 13.2013 2.66115 13.3255 3.08842 13.3255H3.62176H5.65509H9.42779H9.50055C9.51509 13.3255 9.52961 13.3248 9.54406 13.3236C10.4356 13.2836 11.1402 12.5685 11.1551 11.671C11.1581 11.5619 11.1551 11.4498 11.1551 11.3407V9.34068V3.82253V3.06301C11.4018 3.06486 11.6486 3.06538 11.8945 3.05889H11.9126C12.2308 3.05889 12.5338 2.78011 12.5187 2.45283Z" fill="#697F9C"/>
<path fill-rule="evenodd" clip-rule="evenodd" d="M7.8647 1.42322C7.86 1.40242 7.8553 1.38252 7.8506 1.36232C7.8498 1.39142 7.8564 1.41262 7.8647 1.42322Z" fill="#697F9C"/>
<path fill-rule="evenodd" clip-rule="evenodd" d="M4.85065 1.30141C4.84545 1.30231 4.83615 1.30621 4.82415 1.31211C4.84915 1.30971 4.87965 1.29971 4.90915 1.28691C4.88765 1.29251 4.86775 1.29741 4.85065 1.30141Z" fill="#697F9C"/>
<path fill-rule="evenodd" clip-rule="evenodd" d="M7.77188 1.29458C7.76073 1.28978 7.75021 1.28418 7.73937 1.27888C7.72013 1.27758 7.70239 1.27558 7.69958 1.27558C7.69049 1.27698 7.68109 1.27718 7.67188 1.27788C7.70008 1.29538 7.74205 1.30978 7.77188 1.29458Z" fill="#697F9C"/>
<path fill-rule="evenodd" clip-rule="evenodd" d="M4.82997 1.32278C4.83737 1.31438 4.84337 1.30668 4.84847 1.29968C4.83837 1.30568 4.82897 1.31158 4.82007 1.31728C4.81487 1.32538 4.80937 1.33408 4.80377 1.34328C4.81157 1.33798 4.82017 1.33128 4.82997 1.32278Z" fill="#697F9C"/>
<path fill-rule="evenodd" clip-rule="evenodd" d="M4.9188 4.67096C4.59153 4.68611 4.31274 4.93762 4.31274 5.27702V9.33456V9.91944C4.31274 10.2376 4.59153 10.5407 4.9188 10.5255C5.24608 10.5103 5.52487 10.2588 5.52487 9.91944V5.86186V5.27702C5.52487 4.95883 5.24608 4.6558 4.9188 4.67096Z" fill="#697F9C"/>
<path fill-rule="evenodd" clip-rule="evenodd" d="M7.59752 4.67096C7.26721 4.68611 6.99146 4.93762 6.99146 5.27702V9.33456V9.91944C6.99146 10.2376 7.27024 10.5407 7.59752 10.5255C7.92479 10.5103 8.20358 10.2588 8.20358 9.91944V5.86186V5.27702C8.20358 4.95883 7.92479 4.6558 7.59752 4.67096Z" fill="#697F9C"/>
</g>
</svg>
