<svg width="14" height="15" viewBox="0 0 14 15" fill="none" xmlns="http://www.w3.org/2000/svg">
<path fill-rule="evenodd" clip-rule="evenodd" d="M2.78051 12.5605C2.80611 12.6653 2.83781 12.7198 2.78051 12.5605V12.5605Z" fill="black"/>
<mask id="mask0" mask-type="alpha" maskUnits="userSpaceOnUse" x="0" y="0" width="14" height="15">
<path fill-rule="evenodd" clip-rule="evenodd" d="M0 0.0322266H13.4135V14.2771H0V0.0322266Z" fill="white"/>
</mask>
<g mask="url(#mask0)">
<path fill-rule="evenodd" clip-rule="evenodd" d="M10.6267 12.788C10.6399 12.7543 10.6552 12.721 10.6705 12.6882C10.6523 12.7489 10.6361 12.791 10.6267 12.788ZM10.5398 12.8943C10.5664 12.8594 10.593 12.8269 10.6197 12.7945C10.5815 12.852 10.5478 12.898 10.5398 12.8943ZM10.4804 12.9351C10.5029 12.9175 10.5282 12.8974 10.5569 12.8751C10.5603 12.8818 10.5269 12.9057 10.4804 12.9351ZM3.2311 12.9784H3.22786H3.1824C3.17438 12.9778 3.16763 12.9772 3.16169 12.9768C3.14623 12.9733 3.13445 12.9707 3.13695 12.9719C3.10617 12.9658 3.06961 12.9453 3.03821 12.9431C3.01821 12.9321 2.99662 12.9208 2.97461 12.907C2.96052 12.8986 2.94984 12.8924 2.94094 12.8874C2.91497 12.8644 2.87607 12.8284 2.84906 12.8005C2.84539 12.7936 2.84101 12.7853 2.835 12.7739C2.81877 12.7415 2.79929 12.7122 2.78305 12.683C2.7813 12.6799 2.78006 12.6776 2.77854 12.6749C2.76893 12.6424 2.7589 12.6041 2.75708 12.5986C2.75058 12.5726 2.75058 12.5369 2.74084 12.5142C2.74812 12.5335 2.75357 12.5485 2.75769 12.5602C2.75393 12.5444 2.75058 12.5253 2.75058 12.5077V12.2934V10.8453V5.98821C2.75058 5.0962 2.7675 4.19994 2.75964 3.3064H5.21487H10.1694H10.6499V6.42653V11.8324V12.459V12.5044V12.5532C10.6501 12.5593 10.6503 12.5644 10.6505 12.5692C10.6455 12.5928 10.6347 12.6415 10.6249 12.6776C10.617 12.693 10.6091 12.7081 10.6012 12.722C10.5996 12.7253 10.5835 12.7541 10.5672 12.781C10.5538 12.7967 10.5409 12.8115 10.5266 12.8258C10.507 12.8454 10.4876 12.8648 10.4649 12.8843C10.4625 12.8863 10.461 12.8877 10.4589 12.8895C10.4304 12.9067 10.3957 12.9261 10.3902 12.9297C10.3783 12.9357 10.3672 12.9416 10.3561 12.9476C10.3544 12.9481 10.353 12.9486 10.3512 12.9493C10.3154 12.9575 10.2796 12.9678 10.2438 12.9768C10.2237 12.978 10.2026 12.9784 10.1792 12.9784H6.76682C5.58825 12.9784 4.40968 12.998 3.2311 12.9784ZM3.21804 13.0166C3.23564 13.019 3.25424 13.0215 3.27404 13.0241C3.27404 13.0271 3.25054 13.0232 3.21804 13.0166ZM2.82333 12.7617C2.83183 12.7508 2.87653 12.8111 2.91043 12.8604C2.85503 12.8109 2.81743 12.7719 2.82333 12.7617ZM2.80807 12.7013C2.77557 12.6423 2.78517 12.6584 2.80807 12.7013V12.7013ZM2.8461 12.7784C2.8377 12.7784 2.8172 12.7329 2.7954 12.6784C2.8271 12.7256 2.8575 12.7755 2.8461 12.7784ZM5.09149 1.59857V1.49471V1.48172C5.09149 1.47049 5.09451 1.45263 5.09614 1.44276C5.09698 1.43968 5.09766 1.43721 5.09799 1.43623C5.09838 1.43445 5.09847 1.43341 5.0988 1.43179C5.10117 1.42776 5.10763 1.41653 5.11497 1.40412C5.13016 1.3912 5.14695 1.37578 5.15899 1.36094C5.16045 1.36016 5.16179 1.35951 5.16308 1.35886C5.16218 1.35896 5.16127 1.35909 5.16042 1.35912C5.16084 1.35857 5.1613 1.35802 5.16172 1.3575C5.16451 1.35698 5.16789 1.35627 5.17169 1.35539C5.17195 1.35533 5.17247 1.35507 5.17266 1.35507C5.23188 1.32296 5.23185 1.32789 5.21429 1.33854C5.185 1.34617 5.19351 1.34341 5.21049 1.34081C5.20477 1.34409 5.19786 1.34757 5.19068 1.35068C5.20448 1.34708 5.22006 1.34273 5.23422 1.33854C5.23773 1.33847 5.2411 1.33851 5.24409 1.33883H5.2798H5.7798H7.50058H8.12068C8.15451 1.33883 8.18821 1.34104 8.21987 1.33958C8.19922 1.33159 8.19312 1.32198 8.24084 1.33562C8.24532 1.33711 8.25032 1.33844 8.25506 1.3399C8.26153 1.3402 8.26818 1.34036 8.27347 1.34023C8.27477 1.34114 8.27604 1.34205 8.27737 1.34292C8.27571 1.3438 8.27386 1.34442 8.27205 1.345C8.27692 1.34633 8.28153 1.34711 8.28633 1.34821C8.29094 1.35078 8.29545 1.35312 8.3001 1.35529C8.31441 1.36575 8.34286 1.38409 8.35448 1.39406C8.3561 1.39549 8.35769 1.39701 8.35919 1.3986C8.3648 1.41023 8.37055 1.42166 8.37461 1.42873C8.37549 1.4313 8.3762 1.43341 8.37721 1.43623C8.37782 1.43883 8.37851 1.44182 8.37912 1.44461C8.37919 1.4425 8.37955 1.4401 8.37993 1.4377C8.38308 1.44292 8.38562 1.44753 8.38714 1.45127C8.3864 1.45461 8.38571 1.45935 8.3851 1.46542C8.38461 1.46503 8.38419 1.465 8.3837 1.46438C8.38406 1.46597 8.38438 1.4675 8.38477 1.46906C8.38438 1.47367 8.38399 1.47877 8.3837 1.48494V1.51094V1.87783V1.97847H5.16292H5.09149V1.59857ZM5.16452 1.41115C5.18342 1.38135 5.19842 1.36055 5.20142 1.36365C5.20842 1.36705 5.20372 1.37845 5.19292 1.39355C5.19852 1.39015 5.20402 1.38695 5.20972 1.38365C5.19752 1.39555 5.18552 1.40695 5.17442 1.41665C5.16312 1.42955 5.14972 1.44365 5.13552 1.45785C5.13982 1.45085 5.14402 1.44385 5.14822 1.43715C5.13472 1.44625 5.12462 1.45005 5.12142 1.44355C5.12142 1.44015 5.14002 1.42675 5.16452 1.41115ZM8.42018 1.4839C8.41198 1.4711 8.39888 1.4466 8.38108 1.4084C8.39038 1.4187 8.39848 1.4294 8.40538 1.4397C8.40928 1.452 8.41418 1.4667 8.42018 1.4839ZM13.4129 2.62783C13.3967 2.27718 13.1272 1.97847 12.7635 1.97847H11.5558H9.6824V1.91029C9.6824 1.57588 9.70188 1.24471 9.56877 0.929773C9.33821 0.384319 8.81873 0.0466566 8.22786 0.0336696C8.07198 0.0304228 7.91617 0.0336696 7.76032 0.0336696H5.90968C5.28955 0.0336696 4.6337 -0.0182785 4.17591 0.504449C3.9324 0.780423 3.80253 1.11484 3.79604 1.48172C3.79279 1.58234 3.79604 1.68627 3.79604 1.78692V1.97847H2.14344C1.65318 1.97847 1.15968 1.96549 0.669415 1.97847H0.649935C0.309026 1.97847 -0.0156495 2.27718 0.000584236 2.62783C0.0135712 2.97844 0.283052 3.27718 0.649935 3.27718H1.45513V5.47198V10.4525V12.1376V12.4817C1.45838 13.0044 1.67591 13.5207 2.085 13.8551C2.44214 14.1441 2.85123 14.2771 3.30903 14.2771H3.88045H6.05903H10.1012H10.1792C10.1947 14.2771 10.2103 14.2763 10.2258 14.2751C11.181 14.2322 11.9359 13.4661 11.9519 12.5044C11.9551 12.3875 11.9519 12.2674 11.9519 12.1505V10.0077V4.09536V3.28159C12.2162 3.28357 12.4806 3.28412 12.7441 3.27718H12.7635C13.1044 3.27718 13.4291 2.97847 13.4129 2.62783Z" fill="#E12556"/>
</g>
<path fill-rule="evenodd" clip-rule="evenodd" d="M8.42232 1.51893C8.41762 1.49813 8.41292 1.47823 8.40822 1.45803C8.40742 1.48713 8.41402 1.50833 8.42232 1.51893Z" fill="#E12556"/>
<path fill-rule="evenodd" clip-rule="evenodd" d="M5.19464 1.39077C5.18944 1.39167 5.18014 1.39557 5.16814 1.40147C5.19314 1.39907 5.22364 1.38907 5.25314 1.37627C5.23164 1.38187 5.21174 1.38677 5.19464 1.39077Z" fill="#E12556"/>
<path fill-rule="evenodd" clip-rule="evenodd" d="M8.31973 1.38345C8.30858 1.37865 8.29806 1.37305 8.28722 1.36775C8.26798 1.36645 8.25024 1.36445 8.24744 1.36445C8.23834 1.36585 8.22894 1.36605 8.21973 1.36675C8.24793 1.38425 8.2899 1.39865 8.31973 1.38345Z" fill="#E12556"/>
<path fill-rule="evenodd" clip-rule="evenodd" d="M5.17104 1.4136C5.17844 1.4052 5.18444 1.3975 5.18954 1.3905C5.17944 1.3965 5.17004 1.4024 5.16114 1.4081C5.15594 1.4162 5.15044 1.4249 5.14484 1.4341C5.15264 1.4288 5.16124 1.4221 5.17104 1.4136Z" fill="#E12556"/>
<path fill-rule="evenodd" clip-rule="evenodd" d="M5.26996 5.00449C4.91931 5.02072 4.62061 5.2902 4.62061 5.65384V10.0012V10.6279C4.62061 10.9688 4.91931 11.2935 5.26996 11.2772C5.62061 11.261 5.91931 10.9915 5.91931 10.6279V6.28046V5.65384C5.91931 5.31293 5.62061 4.98826 5.26996 5.00449Z" fill="#E12556"/>
<path fill-rule="evenodd" clip-rule="evenodd" d="M8.14007 5.00449C7.78618 5.02072 7.49072 5.2902 7.49072 5.65384V10.0012V10.6279C7.49072 10.9688 7.78942 11.2935 8.14007 11.2772C8.49072 11.261 8.78942 10.9915 8.78942 10.6279V6.28046V5.65384C8.78942 5.31293 8.49072 4.98826 8.14007 5.00449Z" fill="#E12556"/>
</svg>
