<svg width="14" height="17" viewBox="0 0 14 17" fill="none" xmlns="http://www.w3.org/2000/svg">
<path fill-rule="evenodd" clip-rule="evenodd" d="M6.90638 12.2189C6.77038 12.2189 6.63438 12.1668 6.53079 12.0632L4.40579 9.93823C4.19807 9.73051 4.19807 9.39476 4.40579 9.18704C4.61351 8.97932 4.94926 8.97932 5.15698 9.18704L6.90638 10.9364L8.65579 9.18704C8.86351 8.97932 9.19926 8.97932 9.40698 9.18704C9.6147 9.39476 9.6147 9.73051 9.40698 9.93823L7.28198 12.0632C7.17838 12.1668 7.04238 12.2189 6.90638 12.2189Z" fill="#1A99E5"/>
<path fill-rule="evenodd" clip-rule="evenodd" d="M6.90625 12.2188C6.613 12.2188 6.375 11.9813 6.375 11.6875V6.375C6.375 6.08175 6.613 5.84375 6.90625 5.84375C7.1995 5.84375 7.4375 6.08175 7.4375 6.375V11.6875C7.4375 11.9813 7.1995 12.2188 6.90625 12.2188Z" fill="#1A99E5"/>
<path fill-rule="evenodd" clip-rule="evenodd" d="M10.0938 14.3438H3.71875C3.4255 14.3438 3.1875 14.1063 3.1875 13.8125C3.1875 13.5187 3.4255 13.2812 3.71875 13.2812H10.0938C10.3875 13.2812 10.625 13.5187 10.625 13.8125C10.625 14.1063 10.3875 14.3438 10.0938 14.3438Z" fill="#1A99E5"/>
<path fill-rule="evenodd" clip-rule="evenodd" d="M1.36425 17H12.4498C13.2016 17 13.8125 16.4039 13.8125 15.6713V1.32866C13.8125 0.596062 13.201 0 12.4493 0H4.75681C4.28825 0 3.84731 0.182219 3.51581 0.51425L0.513719 3.51634C0.187531 3.84306 0 4.29516 0 4.75681V15.6703C0 16.4034 0.612 17 1.36425 17ZM4.26753 1.26491C4.39822 1.13422 4.57194 1.0625 4.75681 1.0625H12.4493C12.6151 1.0625 12.75 1.18203 12.75 1.32866V15.6713C12.75 15.818 12.6151 15.9375 12.4493 15.9375H1.36425C1.19797 15.9375 1.0625 15.8174 1.0625 15.6703V4.75681C1.0625 4.57459 1.13634 4.39609 1.26491 4.26753L4.26753 1.26491Z" fill="#1A99E5"/>
<path fill-rule="evenodd" clip-rule="evenodd" d="M3.98438 5.3125H2.125C1.83175 5.3125 1.59375 5.0745 1.59375 4.78125C1.59375 4.488 1.83175 4.25 2.125 4.25H3.98438C4.131 4.25 4.25 4.131 4.25 3.98438V2.125C4.25 1.83175 4.488 1.59375 4.78125 1.59375C5.0745 1.59375 5.3125 1.83175 5.3125 2.125V3.98438C5.3125 4.71644 4.71644 5.3125 3.98438 5.3125Z" fill="#1A99E5"/>
</svg>
