<svg width="20" height="18" viewBox="0 0 20 18" fill="none" xmlns="http://www.w3.org/2000/svg">
<g opacity="0.49993">
<path fill-rule="evenodd" clip-rule="evenodd" d="M19.2515 1.5988V1H15.012V1.5988H16.8323V2.22156H16.2335C11.491 1.74251 8.78443 1.74251 4.04192 2.22156H3.44311V1.5988H5.26347V1H1V1.5988H2.84431V2.22156H2.22156C2.05389 2.22156 1.91018 2.34132 1.91018 2.50898V3.73054C1.91018 5.14371 3.94611 5.40719 4.30539 4.04192C5.81437 4.13772 7.15569 4.9521 7.94611 6.24551C8.66467 7.44311 11.6108 7.44311 12.3293 6.24551C13.0958 4.9521 14.4611 4.13772 15.9701 4.04192C16.3293 5.40719 18.3413 5.14371 18.3413 3.73054V2.50898C18.3413 2.34132 18.2216 2.22156 18.0539 2.22156H17.4311V1.5988H19.2515ZM3.75449 3.73054C3.75449 4.52096 2.53293 4.52096 2.53293 3.73054V2.82036H3.75449V3.73054ZM15.9222 3.44311C14.2216 3.53892 12.6886 4.47305 11.8024 5.93413C11.3234 6.72455 8.9521 6.72455 8.4491 5.93413C7.58683 4.47305 6.05389 3.53892 4.35329 3.44311V2.79641C8.83234 2.34132 11.4431 2.34132 15.9222 2.79641V3.44311ZM17.7425 2.82036V3.73054C17.7425 4.52096 16.521 4.52096 16.521 3.73054V2.82036H17.7425Z" fill="#1B1F25"/>
<path d="M19.2515 1.5988V1.8488H19.5015V1.5988H19.2515ZM19.2515 1H19.5015V0.75H19.2515V1ZM15.012 1V0.75H14.762V1H15.012ZM15.012 1.5988H14.762V1.8488H15.012V1.5988ZM16.8323 1.5988H17.0823V1.3488H16.8323V1.5988ZM16.8323 2.22156V2.47156H17.0823V2.22156H16.8323ZM16.2335 2.22156L16.2084 2.47029L16.2209 2.47156H16.2335V2.22156ZM4.04192 2.22156V2.47156H4.05451L4.06704 2.47029L4.04192 2.22156ZM3.44311 2.22156H3.19311V2.47156H3.44311V2.22156ZM3.44311 1.5988V1.3488H3.19311V1.5988H3.44311ZM5.26347 1.5988V1.8488H5.51347V1.5988H5.26347ZM5.26347 1H5.51347V0.75H5.26347V1ZM1 1V0.75H0.75V1H1ZM1 1.5988H0.75V1.8488H1V1.5988ZM2.84431 1.5988H3.09431V1.3488H2.84431V1.5988ZM2.84431 2.22156V2.47156H3.09431V2.22156H2.84431ZM4.30539 4.04192L4.32123 3.79242L4.11596 3.77939L4.06362 3.97829L4.30539 4.04192ZM7.94611 6.24551L8.16049 6.11688L8.15943 6.11515L7.94611 6.24551ZM12.3293 6.24551L12.5437 6.37414L12.5444 6.37296L12.3293 6.24551ZM15.9701 4.04192L16.2118 3.97829L16.1595 3.77939L15.9542 3.79242L15.9701 4.04192ZM17.4311 2.22156H17.1811V2.47156H17.4311V2.22156ZM17.4311 1.5988V1.3488H17.1811V1.5988H17.4311ZM2.53293 2.82036V2.57036H2.28293V2.82036H2.53293ZM3.75449 2.82036H4.00449V2.57036H3.75449V2.82036ZM15.9222 3.44311L15.9362 3.69272L16.1722 3.67943V3.44311H15.9222ZM11.8024 5.93413L11.5886 5.80448L11.5886 5.80456L11.8024 5.93413ZM8.4491 5.93413L8.23368 6.06127L8.23819 6.06835L8.4491 5.93413ZM4.35329 3.44311H4.10329V3.67943L4.33923 3.69272L4.35329 3.44311ZM4.35329 2.79641L4.32802 2.54769L4.10329 2.57052V2.79641H4.35329ZM15.9222 2.79641H16.1722V2.57052L15.9474 2.54769L15.9222 2.79641ZM17.7425 2.82036H17.9925V2.57036H17.7425V2.82036ZM16.521 2.82036V2.57036H16.271V2.82036H16.521ZM19.5015 1.5988V1H19.0015V1.5988H19.5015ZM19.2515 0.75H15.012V1.25H19.2515V0.75ZM14.762 1V1.5988H15.262V1H14.762ZM15.012 1.8488H16.8323V1.3488H15.012V1.8488ZM16.5823 1.5988V2.22156H17.0823V1.5988H16.5823ZM16.8323 1.97156H16.2335V2.47156H16.8323V1.97156ZM16.2587 1.97282C11.4994 1.49209 8.77601 1.49209 4.01679 1.97282L4.06704 2.47029C8.79285 1.99294 11.4826 1.99294 16.2084 2.47029L16.2587 1.97282ZM4.04192 1.97156H3.44311V2.47156H4.04192V1.97156ZM3.69311 2.22156V1.5988H3.19311V2.22156H3.69311ZM3.44311 1.8488H5.26347V1.3488H3.44311V1.8488ZM5.51347 1.5988V1H5.01347V1.5988H5.51347ZM5.26347 0.75H1V1.25H5.26347V0.75ZM0.75 1V1.5988H1.25V1H0.75ZM1 1.8488H2.84431V1.3488H1V1.8488ZM2.59431 1.5988V2.22156H3.09431V1.5988H2.59431ZM2.84431 1.97156H2.22156V2.47156H2.84431V1.97156ZM2.22156 1.97156C1.9427 1.97156 1.66018 2.17782 1.66018 2.50898H2.16018C2.16018 2.50341 2.16124 2.50028 2.16217 2.49826C2.16324 2.49594 2.16537 2.49257 2.16969 2.48871C2.17882 2.48054 2.19661 2.47156 2.22156 2.47156V1.97156ZM1.66018 2.50898V3.73054H2.16018V2.50898H1.66018ZM1.66018 3.73054C1.66018 5.4358 4.11308 5.75502 4.54716 4.10554L4.06362 3.97829C3.77913 5.05935 2.16018 4.85163 2.16018 3.73054H1.66018ZM4.28955 4.29141C5.71654 4.38202 6.98449 5.15139 7.73279 6.37587L8.15943 6.11515C7.32688 4.7528 5.9122 3.89343 4.32123 3.79242L4.28955 4.29141ZM7.73173 6.37413C7.9498 6.73758 8.32373 6.9908 8.74319 7.15244C9.16509 7.31502 9.65444 7.39371 10.1377 7.39371C10.621 7.39371 11.1104 7.31502 11.5323 7.15244C11.9517 6.9908 12.3256 6.73758 12.5437 6.37413L12.115 6.11689C11.9738 6.35224 11.71 6.54812 11.3525 6.68588C10.9974 6.8227 10.5706 6.89371 10.1377 6.89371C9.70484 6.89371 9.27802 6.8227 8.92298 6.68588C8.56549 6.54812 8.30169 6.35224 8.16048 6.11689L7.73173 6.37413ZM12.5444 6.37296C13.2674 5.15295 14.5567 4.38215 15.9859 4.29141L15.9542 3.79242C14.3654 3.89329 12.9242 4.75124 12.1143 6.11806L12.5444 6.37296ZM15.7283 4.10554C16.1633 5.75852 18.5913 5.43217 18.5913 3.73054H18.0913C18.0913 4.85525 16.4954 5.05585 16.2118 3.97829L15.7283 4.10554ZM18.5913 3.73054V2.50898H18.0913V3.73054H18.5913ZM18.5913 2.50898C18.5913 2.20325 18.3596 1.97156 18.0539 1.97156V2.47156C18.0659 2.47156 18.0733 2.47365 18.0771 2.47518C18.0809 2.47669 18.0828 2.47822 18.0837 2.47917C18.0847 2.48012 18.0862 2.48196 18.0877 2.48576C18.0892 2.4896 18.0913 2.497 18.0913 2.50898H18.5913ZM18.0539 1.97156H17.4311V2.47156H18.0539V1.97156ZM17.6811 2.22156V1.5988H17.1811V2.22156H17.6811ZM17.4311 1.8488H19.2515V1.3488H17.4311V1.8488ZM3.50449 3.73054C3.50449 3.85765 3.45814 3.93597 3.40031 3.98586C3.33735 4.04019 3.24512 4.07335 3.14371 4.07335C3.04231 4.07335 2.95008 4.04019 2.88711 3.98586C2.82929 3.93597 2.78293 3.85765 2.78293 3.73054H2.28293C2.28293 3.99863 2.38928 4.21672 2.56049 4.36444C2.72657 4.50772 2.93973 4.57335 3.14371 4.57335C3.3477 4.57335 3.56086 4.50772 3.72693 4.36444C3.89815 4.21672 4.00449 3.99863 4.00449 3.73054H3.50449ZM2.78293 3.73054V2.82036H2.28293V3.73054H2.78293ZM2.53293 3.07036H3.75449V2.57036H2.53293V3.07036ZM3.50449 2.82036V3.73054H4.00449V2.82036H3.50449ZM15.9081 3.19351C14.1238 3.29403 12.5168 4.2742 11.5886 5.80448L12.0161 6.06378C12.8604 4.67191 14.3193 3.78381 15.9362 3.69272L15.9081 3.19351ZM11.5886 5.80456C11.5138 5.928 11.3424 6.05047 11.0683 6.14148C10.8013 6.23013 10.4718 6.27695 10.1347 6.27695C9.79776 6.27695 9.46639 6.23015 9.19597 6.14125C8.91875 6.05011 8.74066 5.92664 8.66002 5.79991L8.23819 6.06835C8.40904 6.33683 8.71598 6.50977 9.03981 6.61624C9.37044 6.72494 9.75614 6.77695 10.1347 6.77695C10.5133 6.77695 10.8978 6.72496 11.2259 6.616C11.5468 6.50941 11.8515 6.33547 12.0162 6.06371L11.5886 5.80456ZM8.6644 5.80707C7.75965 4.27401 6.15117 3.29401 4.36736 3.19351L4.33923 3.69272C5.95662 3.78384 7.414 4.67209 8.2338 6.06119L8.6644 5.80707ZM4.60329 3.44311V2.79641H4.10329V3.44311H4.60329ZM4.37856 3.04513C8.8408 2.59174 11.4346 2.59174 15.8969 3.04513L15.9474 2.54769C11.4516 2.09089 8.82387 2.09089 4.32802 2.54769L4.37856 3.04513ZM15.6722 2.79641V3.44311H16.1722V2.79641H15.6722ZM17.4925 2.82036V3.73054H17.9925V2.82036H17.4925ZM17.4925 3.73054C17.4925 3.85765 17.4462 3.93597 17.3883 3.98586C17.3254 4.04019 17.2331 4.07335 17.1317 4.07335C17.0303 4.07335 16.9381 4.04019 16.8751 3.98586C16.8173 3.93597 16.771 3.85765 16.771 3.73054H16.271C16.271 3.99863 16.3773 4.21672 16.5485 4.36444C16.7146 4.50772 16.9278 4.57335 17.1317 4.57335C17.3357 4.57335 17.5489 4.50772 17.715 4.36444C17.8862 4.21672 17.9925 3.99863 17.9925 3.73054H17.4925ZM16.771 3.73054V2.82036H16.271V3.73054H16.771ZM16.521 3.07036H17.7425V2.57036H16.521V3.07036Z" fill="#FFC400"/>
</g>
<g opacity="0.49993">
<path fill-rule="evenodd" clip-rule="evenodd" d="M10.1258 3.41895C9.45517 3.41895 8.92822 3.96984 8.92822 4.6405C8.92822 5.31116 9.45517 5.86206 10.1258 5.86206C10.7965 5.86206 11.3474 5.31116 11.3474 4.6405C11.3474 3.96984 10.7965 3.41895 10.1258 3.41895ZM10.1258 5.26326C9.7905 5.26326 9.52703 4.97583 9.52703 4.6405C9.52703 4.30517 9.7905 4.0417 10.1258 4.0417C10.4612 4.0417 10.7486 4.30517 10.7486 4.6405C10.7486 4.97583 10.4612 5.26326 10.1258 5.26326Z" fill="#1B1F25"/>
<path d="M10.1258 3.16895C9.31068 3.16895 8.67822 3.83827 8.67822 4.6405H9.17822C9.17822 4.10141 9.59965 3.66895 10.1258 3.66895V3.16895ZM8.67822 4.6405C8.67822 5.44273 9.31068 6.11206 10.1258 6.11206V5.61206C9.59965 5.61206 9.17822 5.17959 9.17822 4.6405H8.67822ZM10.1258 6.11206C10.9346 6.11206 11.5974 5.44923 11.5974 4.6405H11.0974C11.0974 5.17309 10.6584 5.61206 10.1258 5.61206V6.11206ZM11.5974 4.6405C11.5974 3.83177 10.9346 3.16895 10.1258 3.16895V3.66895C10.6584 3.66895 11.0974 4.10791 11.0974 4.6405H11.5974ZM10.1258 5.01326C9.94113 5.01326 9.77703 4.85067 9.77703 4.6405H9.27703C9.27703 5.10099 9.63986 5.51326 10.1258 5.51326V5.01326ZM9.77703 4.6405C9.77703 4.44324 9.92857 4.2917 10.1258 4.2917V3.7917C9.65243 3.7917 9.27703 4.1671 9.27703 4.6405H9.77703ZM10.1258 4.2917C10.336 4.2917 10.4986 4.45581 10.4986 4.6405H10.9986C10.9986 4.15454 10.5863 3.7917 10.1258 3.7917V4.2917ZM10.4986 4.6405C10.4986 4.83776 10.3231 5.01326 10.1258 5.01326V5.51326C10.5992 5.51326 10.9986 5.1139 10.9986 4.6405H10.4986Z" fill="#FFC400"/>
</g>
<path opacity="0.49993" fill-rule="evenodd" clip-rule="evenodd" d="M16.2093 7.99414C16.2093 15.9941 4.04167 15.9941 4.04167 7.99414H3.44287C3.44287 16.7846 16.8321 16.7846 16.8321 7.99414H16.2093Z" fill="#1B1F25" stroke="#FFC400" stroke-width="0.5"/>
<path opacity="0.49993" fill-rule="evenodd" clip-rule="evenodd" d="M13.7904 7.99414C13.7904 12.7846 6.48503 12.7846 6.48503 7.99414H5.88623C5.88623 13.5989 14.3892 13.5989 14.3892 7.99414H13.7904Z" fill="#1B1F25" stroke="#FFC400" stroke-width="0.5"/>
<path opacity="0.49993" fill-rule="evenodd" clip-rule="evenodd" d="M18.6527 7.99414C18.6287 19.1798 1.62275 19.1798 1.62275 7.99414H1C1 19.9941 19.2515 19.9941 19.2515 7.99414H18.6527Z" fill="#1B1F25" stroke="#FFC400" stroke-width="0.5"/>
</svg>
