<svg width="16" height="16" viewBox="0 0 16 16" fill="none" xmlns="http://www.w3.org/2000/svg">
<path fill-rule="evenodd" clip-rule="evenodd" d="M14.6857 4.41452L11.4286 1.15738C11.3429 1.07167 11.2286 1.02881 11.1143 1.02881C11 1.02881 10.8857 1.07167 10.8 1.15738L1.91429 10.1574C1.85715 10.2145 1.81429 10.3002 1.8 10.386L1.11429 14.4431C1.08572 14.586 1.14286 14.7431 1.24286 14.8431C1.32857 14.9145 1.42857 14.9574 1.54286 14.9574C1.58572 14.9574 5.54286 13.9431 5.54286 13.9431C5.61429 13.9288 5.68572 13.886 5.74286 13.8288L14.6857 5.04309C14.7714 4.95738 14.8143 4.84309 14.8143 4.72881C14.8286 4.61452 14.7714 4.50024 14.6857 4.41452ZM5.21429 13.1145L2.08572 13.9145L2.62857 10.6717L9.02857 4.20024L11.6714 6.77167L5.21429 13.1145ZM9.65715 3.57167L12.3143 6.14309L13.7714 4.72881L11.1286 2.08595L9.65715 3.57167Z" fill="#697F9C"/>
<path d="M11.4286 1.15738L11.6054 0.980603V0.980603L11.4286 1.15738ZM14.6857 4.41452L14.5089 4.5913L14.6857 4.41452ZM10.8 1.15738L10.6232 0.9806L10.6221 0.981736L10.8 1.15738ZM1.91429 10.1574L2.09107 10.3342L2.09219 10.333L1.91429 10.1574ZM1.8 10.386L2.04651 10.4276L2.0466 10.4271L1.8 10.386ZM1.11429 14.4431L1.35954 14.4921L1.36079 14.4848L1.11429 14.4431ZM1.24286 14.8431L1.06608 15.0199L1.0741 15.0279L1.08281 15.0351L1.24286 14.8431ZM5.54286 13.9431L5.49376 13.6976L5.48079 13.7009L5.54286 13.9431ZM5.74286 13.8288L5.56765 13.6505L5.56608 13.652L5.74286 13.8288ZM14.6857 5.04309L14.8609 5.22144L14.8625 5.21987L14.6857 5.04309ZM14.8143 4.72881L14.5662 4.6978L14.5643 4.71324V4.72881H14.8143ZM2.08572 13.9145L1.83915 13.8732L1.77577 14.2518L2.14765 14.1567L2.08572 13.9145ZM5.21429 13.1145L5.27622 13.3567L5.34145 13.3401L5.38948 13.2929L5.21429 13.1145ZM2.62857 10.6717L2.45082 10.4959L2.39509 10.5522L2.38201 10.6304L2.62857 10.6717ZM9.02857 4.20024L9.20291 4.02106L9.02519 3.84813L8.85082 4.02444L9.02857 4.20024ZM11.6714 6.77167L11.8466 6.95001L12.0291 6.77081L11.8458 6.59248L11.6714 6.77167ZM12.3143 6.14309L12.1404 6.32274L12.3145 6.49124L12.4884 6.32249L12.3143 6.14309ZM9.65715 3.57167L9.47952 3.39575L9.30155 3.57544L9.48329 3.75132L9.65715 3.57167ZM13.7714 4.72881L13.9455 4.9082L14.1276 4.73147L13.9482 4.55203L13.7714 4.72881ZM11.1286 2.08595L11.3054 1.90917L11.1277 1.73154L10.9509 1.91003L11.1286 2.08595ZM11.2518 1.33416L14.5089 4.5913L14.8625 4.23775L11.6054 0.980603L11.2518 1.33416ZM11.1143 1.27881C11.1667 1.27881 11.216 1.29839 11.2518 1.33416L11.6054 0.980603C11.4697 0.84494 11.2904 0.778809 11.1143 0.778809V1.27881ZM10.9768 1.33416C11.0125 1.29839 11.0618 1.27881 11.1143 1.27881V0.778809C10.9382 0.778809 10.7589 0.84494 10.6232 0.980603L10.9768 1.33416ZM2.09219 10.333L10.9779 1.33302L10.6221 0.981736L1.73639 9.98174L2.09219 10.333ZM2.0466 10.4271C2.053 10.3886 2.07359 10.3516 2.09107 10.3342L1.73751 9.9806C1.6407 10.0774 1.57558 10.2118 1.5534 10.3449L2.0466 10.4271ZM1.36079 14.4848L2.04651 10.4276L1.5535 10.3443L0.867784 14.4014L1.36079 14.4848ZM1.41964 14.6663C1.37113 14.6178 1.34926 14.543 1.35943 14.4921L0.869143 14.3941C0.822175 14.6289 0.914587 14.8684 1.06608 15.0199L1.41964 14.6663ZM1.54286 14.7074C1.49626 14.7074 1.45131 14.6914 1.40291 14.651L1.08281 15.0351C1.20584 15.1377 1.36089 15.2074 1.54286 15.2074V14.7074ZM5.54286 13.9431C5.48079 13.7009 5.48077 13.7009 5.48074 13.7009C5.48071 13.7009 5.48067 13.701 5.48061 13.701C5.48049 13.701 5.48031 13.701 5.48007 13.7011C5.47959 13.7012 5.47887 13.7014 5.47792 13.7017C5.47602 13.7021 5.47319 13.7029 5.46944 13.7038C5.46196 13.7057 5.45085 13.7086 5.43636 13.7123C5.40737 13.7197 5.36485 13.7306 5.31072 13.7445C5.20245 13.7722 5.04772 13.8118 4.86192 13.8594C4.49031 13.9545 3.9944 14.0812 3.49717 14.208C2.9999 14.3348 2.50149 14.4615 2.1248 14.5565C1.93639 14.604 1.77879 14.6435 1.6671 14.6711C1.61115 14.6849 1.56735 14.6956 1.53718 14.7027C1.52193 14.7063 1.5112 14.7088 1.50451 14.7103C1.50098 14.7111 1.50005 14.7112 1.50078 14.7111C1.50101 14.711 1.50343 14.7106 1.50704 14.71C1.50885 14.7098 1.51231 14.7093 1.51678 14.7088C1.52 14.7084 1.52995 14.7074 1.54286 14.7074V15.2074C1.56417 15.2074 1.58164 15.2044 1.58211 15.2044C1.58735 15.2036 1.59185 15.2027 1.59464 15.2022C1.60046 15.2011 1.60649 15.1998 1.6117 15.1987C1.6225 15.1963 1.63642 15.1931 1.65251 15.1892C1.68501 15.1815 1.73062 15.1704 1.78698 15.1565C1.8999 15.1286 2.05848 15.0889 2.24708 15.0413C2.62441 14.9461 3.12332 14.8193 3.62069 14.6925C4.11811 14.5657 4.61416 14.4389 4.98585 14.3438C5.1717 14.2962 5.32647 14.2566 5.43477 14.2289C5.48892 14.215 5.53146 14.2041 5.56046 14.1967C5.57496 14.1929 5.58608 14.1901 5.59357 14.1882C5.59732 14.1872 5.60016 14.1865 5.60206 14.186C5.60301 14.1858 5.60373 14.1856 5.60421 14.1855C5.60445 14.1854 5.60463 14.1853 5.60475 14.1853C5.60481 14.1853 5.60486 14.1853 5.60489 14.1853C5.60492 14.1853 5.60493 14.1853 5.54286 13.9431ZM5.56608 13.652C5.53516 13.683 5.50609 13.6955 5.49383 13.6979L5.59189 14.1882C5.72249 14.1621 5.83627 14.089 5.91964 14.0056L5.56608 13.652ZM14.5105 4.86476L5.56766 13.6505L5.91806 14.0071L14.8609 5.22143L14.5105 4.86476ZM14.5643 4.72881C14.5643 4.78125 14.5447 4.83055 14.5089 4.86632L14.8625 5.21987C14.9982 5.08421 15.0643 4.90493 15.0643 4.72881H14.5643ZM14.5089 4.5913C14.5329 4.61528 14.5492 4.63973 14.5581 4.66035C14.5668 4.68046 14.5669 4.69253 14.5662 4.6978L15.0624 4.75982C15.0895 4.54246 14.9806 4.35582 14.8625 4.23775L14.5089 4.5913ZM2.14765 14.1567L5.27622 13.3567L5.15235 12.8723L2.02378 13.6723L2.14765 14.1567ZM2.38201 10.6304L1.83915 13.8732L2.33229 13.9558L2.87514 10.7129L2.38201 10.6304ZM8.85082 4.02444L2.45082 10.4959L2.80633 10.8475L9.20633 4.37603L8.85082 4.02444ZM11.8458 6.59248L9.20291 4.02106L8.85424 4.37942L11.4971 6.95085L11.8458 6.59248ZM5.38948 13.2929L11.8466 6.95001L11.4962 6.59332L5.0391 12.9362L5.38948 13.2929ZM12.4881 5.96344L9.831 3.39202L9.48329 3.75132L12.1404 6.32274L12.4881 5.96344ZM13.5973 4.54941L12.1402 5.9637L12.4884 6.32249L13.9455 4.9082L13.5973 4.54941ZM10.9518 2.26273L13.5947 4.90559L13.9482 4.55203L11.3054 1.90917L10.9518 2.26273ZM9.83477 3.74759L11.3062 2.26187L10.9509 1.91003L9.47952 3.39575L9.83477 3.74759Z" fill="#697F9C"/>
</svg>
