<svg width="10" height="15" viewBox="0 0 10 15" fill="none" xmlns="http://www.w3.org/2000/svg">
<path fill-rule="evenodd" clip-rule="evenodd" d="M6.91324 3.29338L4.85294 0L2.79265 3.29338C1.74926 4.95882 0 8.03162 0 9.88897C0 12.7059 2.17721 15 4.85294 15C7.52868 15 9.70588 12.7059 9.70588 9.88897C9.70588 8.03162 7.95662 4.95882 6.91324 3.29338ZM3.91324 3.99485L4.85294 2.49485L5.79265 3.99485C6.50793 5.11679 7.14261 6.28812 7.69191 7.5H2.01397C2.56327 6.28812 3.19796 5.11679 3.91324 3.99485ZM4.45809 13.65C4.7205 13.6794 4.98538 13.6794 5.24779 13.65C4.98574 13.6853 4.72014 13.6853 4.45809 13.65Z" fill="#697F9C"/>
</svg>
