<svg width="24" height="19" viewBox="0 0 24 19" fill="none" xmlns="http://www.w3.org/2000/svg">
<path fill-rule="evenodd" clip-rule="evenodd" d="M19.608 8.10197C19.608 5.78751 17.7248 3.9043 15.4103 3.9043C13.5071 3.9043 11.9037 5.1801 11.392 6.91985C10.7074 6.6185 9.95244 6.44765 9.15739 6.44765C6.49709 6.44765 4.26864 8.32349 3.71809 10.8212C1.77243 10.8627 0.201172 12.4552 0.201172 14.4103C0.201172 16.3919 1.81337 18.0038 3.79468 18.0038H14.5201C16.5017 18.0038 18.1136 16.3916 18.1136 14.4103C18.1136 13.4488 17.7321 12.576 17.1141 11.9308C18.5811 11.2769 19.608 9.80932 19.608 8.10197ZM3.79497 16.8258C2.4632 16.8258 1.37976 15.7423 1.37976 14.4106C1.37976 13.1501 2.35215 12.1132 3.58612 12.0065C3.58612 12.0089 3.58597 12.0112 3.58582 12.0135C3.58568 12.0158 3.58553 12.018 3.58553 12.0204V12.2902V12.7556V12.8794C3.58553 13.2046 3.84917 13.4685 4.17468 13.4685C4.49989 13.4685 4.76382 13.2046 4.76382 12.8794V12.7757V12.2902V12.0204C4.76382 9.59723 6.73482 7.62623 9.15768 7.62623C11.5806 7.62623 13.5515 9.59723 13.5515 12.0204V12.2684H13.5539C13.5539 12.2721 13.5533 12.2757 13.5527 12.2793C13.5521 12.2829 13.5515 12.2865 13.5515 12.2902V12.8794C13.5515 13.2046 13.8155 13.4685 14.1407 13.4685C14.4662 13.4685 14.7298 13.2046 14.7298 12.8794V12.4755V12.2902V12.0204C14.7298 12.0193 14.7298 12.0183 14.7298 12.0172C14.7297 12.016 14.7296 12.0147 14.7295 12.0135C14.7294 12.0112 14.7292 12.0089 14.7292 12.0065C15.9632 12.1129 16.9356 13.1498 16.9356 14.4106C16.9356 15.7423 15.8522 16.8258 14.5204 16.8258H3.79497ZM14.597 10.8212C15.0436 10.8309 15.4692 10.9252 15.8616 11.0839C17.313 10.8651 18.4297 9.61343 18.43 8.10197C18.43 6.43734 17.0755 5.08259 15.4106 5.08259C13.9404 5.08259 12.7144 6.13893 12.4469 7.53197C13.5183 8.32055 14.3012 9.4791 14.597 10.8212Z" fill="#697F9C"/>
<path fill-rule="evenodd" clip-rule="evenodd" d="M15.4104 3.04498C15.7356 3.04498 15.9996 2.78104 15.9996 2.45583V0.737585C15.9996 0.412375 15.7356 0.148438 15.4104 0.148438C15.0849 0.148438 14.8213 0.412375 14.8213 0.737585V2.45583C14.8213 2.78134 15.0849 3.04498 15.4104 3.04498Z" fill="#697F9C"/>
<path fill-rule="evenodd" clip-rule="evenodd" d="M22.7755 7.5127H21.0569C20.7317 7.5127 20.4678 7.77634 20.4678 8.10184C20.4678 8.42705 20.7317 8.69099 21.0569 8.69099H22.7755C23.1007 8.69099 23.3646 8.42705 23.3646 8.10184C23.3646 7.77634 23.1007 7.5127 22.7755 7.5127Z" fill="#697F9C"/>
<path fill-rule="evenodd" clip-rule="evenodd" d="M19.8191 4.52649L21.0342 3.31138C21.2643 3.08131 21.2637 2.70809 21.0342 2.47832C20.8041 2.24796 20.4312 2.24826 20.2011 2.47832L18.986 3.69314C18.756 3.9232 18.756 4.29614 18.986 4.52649C19.2161 4.75626 19.589 4.75626 19.8191 4.52649Z" fill="#697F9C"/>
<path fill-rule="evenodd" clip-rule="evenodd" d="M19.8197 11.6779C19.5897 11.4479 19.2167 11.4479 18.9861 11.6779C18.7566 11.9077 18.7566 12.2812 18.9861 12.511L20.2012 13.7258C20.4312 13.9559 20.8048 13.9559 21.0342 13.7258C21.2649 13.4957 21.2643 13.1228 21.0342 12.8927L19.8197 11.6779Z" fill="#697F9C"/>
<path fill-rule="evenodd" clip-rule="evenodd" d="M11.0019 4.52657C11.232 4.75663 11.6049 4.75633 11.835 4.52657C12.065 4.29621 12.065 3.92357 11.835 3.69322L10.6199 2.4781C10.3898 2.24833 10.0169 2.24804 9.7868 2.4781C9.55674 2.70787 9.55674 3.08139 9.7868 3.31115L11.0019 4.52657Z" fill="#697F9C"/>
</svg>
