<svg width="28" height="28" viewBox="0 0 28 28" fill="none" xmlns="http://www.w3.org/2000/svg">
<g filter="url(#filter0_f)">
<path fill-rule="evenodd" clip-rule="evenodd" d="M12.5 22H9.5H8.5C7.1214 22 6 20.8786 6 19.5V8.5C6 7.1214 7.1214 6 8.5 6H11.5H19.5C20.8786 6 22 7.1214 22 8.5V9.5V12.5V16.5V19.5C22 20.8786 20.8786 22 19.5 22H12.5ZM13.707 21H19.5C20.2616 21 20.8908 20.4292 20.9862 19.6932L18 16.7072L13.707 21ZM21 15.293L20.207 14.5L21 13.707V15.293ZM21 8.5C21 7.6728 20.3272 7 19.5 7H12.707L18 12.293L21 9.293V8.5ZM11.293 7L17.6466 13.3536C17.842 13.549 18.1584 13.549 18.3536 13.3536L21 10.7072V12.293L19.1464 14.1466C18.951 14.3418 18.951 14.6584 19.1464 14.8536L21 16.7072V18.293L18.3536 15.6464C18.1582 15.451 17.8418 15.451 17.6466 15.6464L12.293 21H10.707L16.8534 14.8536C17.0488 14.6584 17.0488 14.3418 16.8534 14.1466L9.707 7H11.293ZM9.707 14.5L12.75 17.543L15.793 14.5L12.75 11.457L9.707 14.5ZM7 8.5C7 7.7384 7.5708 7.1092 8.3068 7.0138L12.043 10.75L7 15.793V8.5ZM9 15.207L7 17.207V19.5C7 20.3272 7.6728 21 8.5 21H9.293L12.043 18.25L9 15.207Z" fill="#96DC56"/>
</g>
<path fill-rule="evenodd" clip-rule="evenodd" d="M12.5 22H9.5H8.5C7.1214 22 6 20.8786 6 19.5V8.5C6 7.1214 7.1214 6 8.5 6H11.5H19.5C20.8786 6 22 7.1214 22 8.5V9.5V12.5V16.5V19.5C22 20.8786 20.8786 22 19.5 22H12.5ZM13.707 21H19.5C20.2616 21 20.8908 20.4292 20.9862 19.6932L18 16.7072L13.707 21ZM21 15.293L20.207 14.5L21 13.707V15.293ZM21 8.5C21 7.6728 20.3272 7 19.5 7H12.707L18 12.293L21 9.293V8.5ZM11.293 7L17.6466 13.3536C17.842 13.549 18.1584 13.549 18.3536 13.3536L21 10.7072V12.293L19.1464 14.1466C18.951 14.3418 18.951 14.6584 19.1464 14.8536L21 16.7072V18.293L18.3536 15.6464C18.1582 15.451 17.8418 15.451 17.6466 15.6464L12.293 21H10.707L16.8534 14.8536C17.0488 14.6584 17.0488 14.3418 16.8534 14.1466L9.707 7H11.293ZM9.707 14.5L12.75 17.543L15.793 14.5L12.75 11.457L9.707 14.5ZM7 8.5C7 7.7384 7.5708 7.1092 8.3068 7.0138L12.043 10.75L7 15.793V8.5ZM9 15.207L7 17.207V19.5C7 20.3272 7.6728 21 8.5 21H9.293L12.043 18.25L9 15.207Z" fill="#96DC56"/>
<defs>
<filter id="filter0_f" x="0.563437" y="0.563437" width="26.8731" height="26.8731" filterUnits="userSpaceOnUse" color-interpolation-filters="sRGB">
<feFlood flood-opacity="0" result="BackgroundImageFix"/>
<feBlend mode="normal" in="SourceGraphic" in2="BackgroundImageFix" result="shape"/>
<feGaussianBlur stdDeviation="2.71828" result="effect1_foregroundBlur"/>
</filter>
</defs>
</svg>
