<svg width="18" height="18" viewBox="0 0 18 18" fill="none" xmlns="http://www.w3.org/2000/svg">
<path d="M4.67359 5.57143C6.02612 5.57143 7.12257 4.54808 7.12257 3.28571C7.12257 2.02335 6.02612 1 4.67359 1C3.32105 1 2.22461 2.02335 2.22461 3.28571C2.22461 4.54808 3.32105 5.57143 4.67359 5.57143Z" stroke="#697F9C" stroke-width="1.3"/>
<path d="M13.8571 10.143C15.5478 10.143 16.9183 8.86381 16.9183 7.28585C16.9183 5.7079 15.5478 4.42871 13.8571 4.42871C12.1665 4.42871 10.7959 5.7079 10.7959 7.28585C10.7959 8.86381 12.1665 10.143 13.8571 10.143Z" stroke="#697F9C" stroke-width="1.3"/>
<path d="M4.67347 17.0002C6.70227 17.0002 8.34694 15.4652 8.34694 13.5716C8.34694 11.6781 6.70227 10.1431 4.67347 10.1431C2.64467 10.1431 1 11.6781 1 13.5716C1 15.4652 2.64467 17.0002 4.67347 17.0002Z" stroke="#697F9C" stroke-width="1.3"/>
</svg>
