<svg width="19" height="17" viewBox="0 0 19 17" fill="none" xmlns="http://www.w3.org/2000/svg">
<path fill-rule="evenodd" clip-rule="evenodd" d="M16.0148 0.0942383C17.3188 0.0942383 18.3759 1.15134 18.3759 2.45535V12.2067C18.3831 12.3879 18.2806 12.5556 18.1162 12.6317L14.1023 16.622C14.0283 16.7915 13.8622 16.9023 13.6773 16.9053H2.88699C2.26078 16.9053 1.66023 16.6566 1.21743 16.2138C0.774638 15.771 0.525879 15.1704 0.525879 14.5442V2.45535C0.525879 1.15134 1.58298 0.0942383 2.88699 0.0942383H16.0148ZM16.0148 1.03868H2.88699C2.10459 1.03868 1.47032 1.67295 1.47032 2.45535V4.32063H17.4314V2.45535C17.4314 1.67295 16.7972 1.03868 16.0148 1.03868ZM14.1495 15.2526V12.679H16.7231L14.1495 15.2526ZM13.205 12.2067C13.205 11.9459 13.4165 11.7345 13.6773 11.7345H17.4314V5.26507H1.47032V14.5442C1.47032 15.3266 2.10459 15.9609 2.88699 15.9609H13.205V13.222H8.55366C8.29286 13.222 8.08143 13.0106 8.08143 12.7498C8.08143 12.489 8.29286 12.2776 8.55366 12.2776H13.205V12.2067Z" fill="#697F9C"/>
<path fill-rule="evenodd" clip-rule="evenodd" d="M5.62599 7.0835H4.30377C4.04296 7.0835 3.83154 7.29492 3.83154 7.55572C3.83154 7.81652 4.04296 8.02794 4.30377 8.02794H5.62599C5.88679 8.02794 6.09821 7.81652 6.09821 7.55572C6.09821 7.29492 5.88679 7.0835 5.62599 7.0835Z" fill="#697F9C"/>
<path fill-rule="evenodd" clip-rule="evenodd" d="M13.6538 7.0835H8.55377C8.29296 7.0835 8.08154 7.29492 8.08154 7.55572C8.08154 7.81652 8.29296 8.02794 8.55377 8.02794H13.6538C13.9146 8.02794 14.126 7.81652 14.126 7.55572C14.126 7.29492 13.9146 7.0835 13.6538 7.0835Z" fill="#697F9C"/>
<path fill-rule="evenodd" clip-rule="evenodd" d="M5.62599 9.68066H4.30377C4.04296 9.68066 3.83154 9.89209 3.83154 10.1529C3.83154 10.4137 4.04296 10.6251 4.30377 10.6251H5.62599C5.88679 10.6251 6.09821 10.4137 6.09821 10.1529C6.09821 9.89209 5.88679 9.68066 5.62599 9.68066Z" fill="#697F9C"/>
<path fill-rule="evenodd" clip-rule="evenodd" d="M13.6538 9.68066H8.55377C8.29296 9.68066 8.08154 9.89209 8.08154 10.1529C8.08154 10.4137 8.29296 10.6251 8.55377 10.6251H13.6538C13.9146 10.6251 14.126 10.4137 14.126 10.1529C14.126 9.89209 13.9146 9.68066 13.6538 9.68066Z" fill="#697F9C"/>
<path fill-rule="evenodd" clip-rule="evenodd" d="M5.62599 12.2778H4.30377C4.04296 12.2778 3.83154 12.4893 3.83154 12.7501C3.83154 13.0109 4.04296 13.2223 4.30377 13.2223H5.62599C5.88679 13.2223 6.09821 13.0109 6.09821 12.7501C6.09821 12.4893 5.88679 12.2778 5.62599 12.2778Z" fill="#697F9C"/>
</svg>
