<svg width="15" height="21" viewBox="0 0 15 21" fill="none" xmlns="http://www.w3.org/2000/svg">
<path d="M5.17285 17.3213C5.17285 18.702 6.26268 19.8213 7.60706 19.8213C8.95144 19.8213 10.0413 18.702 10.0413 17.3213" stroke="#6A83A3" stroke-linecap="square"/>
<path fill-rule="evenodd" clip-rule="evenodd" d="M6.04208 2.98827C3.34236 3.70156 1.34753 6.21768 1.34753 9.21674V12.2491C1.34753 13.0386 1.28213 14.3169 1.20207 15.0979L1.07269 16.3603C1.03243 16.7531 1.3134 17.0716 1.69627 17.0716H13.5176C13.9022 17.0716 14.1814 16.7524 14.1412 16.3603L14.0118 15.0979C13.9315 14.3141 13.8663 13.038 13.8663 12.2491V9.21674C13.8663 6.22011 11.8719 3.70219 9.17178 2.98839V2.78681C9.17178 1.90144 8.47117 1.17871 7.60693 1.17871C6.74445 1.17871 6.04208 1.89868 6.04208 2.78681V2.98827Z" stroke="#6A83A3" stroke-linecap="round"/>
</svg>
