<svg width="17" height="15" viewBox="0 0 17 15" fill="none" xmlns="http://www.w3.org/2000/svg">
<path fill-rule="evenodd" clip-rule="evenodd" d="M1.8858 0.5C1.11792 0.5 0.496094 1.12687 0.496094 1.9C0.496094 2.67313 1.11792 3.3 1.8858 3.3C2.65368 3.3 3.27551 2.67313 3.27551 1.9C3.27551 1.12687 2.65368 0.5 1.8858 0.5ZM5.36006 1.9C5.36006 2.2866 5.67116 2.6 6.05492 2.6H15.7829C16.1666 2.6 16.4777 2.2866 16.4777 1.9C16.4777 1.5134 16.1666 1.2 15.7829 1.2H6.05492C5.67116 1.2 5.36006 1.5134 5.36006 1.9ZM6.05492 8.2C5.67116 8.2 5.36006 7.8866 5.36006 7.5C5.36006 7.1134 5.67116 6.8 6.05492 6.8H15.7829C16.1666 6.8 16.4777 7.1134 16.4777 7.5C16.4777 7.8866 16.1666 8.2 15.7829 8.2H6.05492ZM1.8858 6.1C1.11792 6.1 0.496094 6.72687 0.496094 7.5C0.496094 8.27313 1.11792 8.9 1.8858 8.9C2.65368 8.9 3.27551 8.27313 3.27551 7.5C3.27551 6.72687 2.65368 6.1 1.8858 6.1ZM6.05492 13.8C5.67116 13.8 5.36006 13.4866 5.36006 13.1C5.36006 12.7134 5.67116 12.4 6.05492 12.4H15.7829C16.1666 12.4 16.4777 12.7134 16.4777 13.1C16.4777 13.4866 16.1666 13.8 15.7829 13.8H6.05492ZM1.8858 11.7C1.11792 11.7 0.496094 12.3269 0.496094 13.1C0.496094 13.8731 1.11792 14.5 1.8858 14.5C2.65368 14.5 3.27551 13.8731 3.27551 13.1C3.27551 12.3269 2.65368 11.7 1.8858 11.7Z" fill="#1A99E5"/>
</svg>
