<svg width="10" height="14" viewBox="0 0 10 14" fill="none" xmlns="http://www.w3.org/2000/svg">
<path fill-rule="evenodd" clip-rule="evenodd" d="M4.78536 0.5C7.40235 0.5 9.53333 2.61111 9.53333 5.24074C9.53333 7.57407 7.06588 10.7593 5.38353 13.1667C5.08444 13.6111 4.44889 13.6111 4.1498 13.1667C2.50484 10.7593 0 7.57407 0 5.24074C0 2.61111 2.13098 0.5 4.78536 0.5ZM4.78536 3.64815C5.64523 3.64815 6.35556 4.35185 6.35556 5.24074C6.35556 6.09259 5.64523 6.7963 4.78536 6.7963C3.8881 6.7963 3.17778 6.09259 3.17778 5.24074C3.17778 4.35185 3.8881 3.64815 4.78536 3.64815Z" fill="#697F9C"/>
</svg>
