<svg width="130" height="18" viewBox="0 0 130 18" fill="none" xmlns="http://www.w3.org/2000/svg">
<path fill-rule="evenodd" clip-rule="evenodd" d="M35.3283 10.3117C29.1214 -7.03828 9.07959 2.75236 9.07959 2.75236C25.6824 -1.84715 35.3283 10.3117 35.3283 10.3117Z" fill="#697F9C"/>
<mask id="mask0" mask-type="alpha" maskUnits="userSpaceOnUse" x="0" y="2" width="21" height="10">
<path fill-rule="evenodd" clip-rule="evenodd" d="M0 2.88037H20.9969V11.858H0V2.88037Z" fill="white"/>
</mask>
<g mask="url(#mask0)">
<path fill-rule="evenodd" clip-rule="evenodd" d="M10.3346 9.50132C10.6195 9.16237 10.9523 8.8686 11.2685 8.55886L12.228 7.63815C12.5662 7.34981 12.9171 7.07505 13.2614 6.79317L13.7804 6.37271C13.957 6.23618 14.1451 6.11358 14.3279 5.98486C15.7801 4.95173 17.4069 4.08909 19.1814 3.65607C19.7802 3.53415 20.3881 3.44788 20.9967 3.4292C17.0622 2.55298 14.1237 2.98871 14.1237 2.98871C12.6831 3.14664 11.3565 3.40407 10.1254 3.72909C5.90827 5.00302 0.443059 3.89347 -0.000488281 3.43498C2.66963 6.97894 5.6977 9.79068 8.34336 11.858C8.43132 11.7404 8.51793 11.6223 8.60623 11.5048C9.15166 10.8129 9.74668 10.1605 10.3346 9.50132Z" fill="#697F9C"/>
</g>
<path fill-rule="evenodd" clip-rule="evenodd" d="M54.1981 9.52623C53.6044 9.19239 52.9653 9.09559 51.3493 9.09559H48.4557C46.7984 9.09559 46.5335 8.79265 46.5335 7.82031C46.5335 6.73148 46.8269 6.49782 49.9379 6.49782C52.2259 6.49782 52.9523 6.57695 53.3225 6.87073C53.5355 7.02152 53.6248 7.20661 53.6248 7.96159V8.10967H54.9796V7.76156C54.9796 6.71382 54.7211 6.15684 54.0575 5.77408C53.3409 5.3662 52.4915 5.27246 49.5143 5.27246C47.5136 5.27246 46.7926 5.36722 46.1592 5.71499C45.411 6.13918 45.1196 6.74235 45.1196 7.86718C45.1196 8.99744 45.4358 9.62201 46.2119 10.0224C46.7872 10.3162 47.6142 10.4154 49.4909 10.4154H52.2551C52.7873 10.4154 53.1524 10.4836 53.4071 10.632C53.6605 10.772 53.7892 10.9666 53.7892 11.6434C53.7892 12.7408 53.4954 13.0597 51.5494 13.0597H48.5614C46.7308 13.0597 46.4863 12.7846 46.4863 11.6906V11.2128H45.1315V11.7375C45.1315 12.8875 45.4073 13.4648 46.1477 13.8663C46.7091 14.1835 47.3785 14.2854 48.9027 14.2854H51.1024C53.0233 14.2854 53.8133 14.1329 54.4851 13.6323C54.9952 13.2499 55.203 12.6735 55.203 11.6434C55.203 10.5257 54.9211 9.93208 54.1981 9.52623Z" fill="#697F9C"/>
<path fill-rule="evenodd" clip-rule="evenodd" d="M58.5673 10.2272H65.5075V9.02495H58.5673V6.61566H65.8016V5.37842H57.1416V14.1797H65.837V12.9422H58.5673V10.2272Z" fill="#697F9C"/>
<path fill-rule="evenodd" clip-rule="evenodd" d="M77.2094 12.7744L69.6189 5.37842H67.6929V14.1794H69.1186V6.8174L76.6664 14.1376L76.7095 14.1794H78.6352V5.37842H77.2094V12.7744Z" fill="#697F9C"/>
<path fill-rule="evenodd" clip-rule="evenodd" d="M89.6995 9.52623C89.1059 9.19239 88.4667 9.09559 86.8508 9.09559H83.9572C82.2998 9.09559 82.0349 8.79265 82.0349 7.82031C82.0349 6.73148 82.3284 6.49782 85.4393 6.49782C87.7274 6.49782 88.4538 6.57695 88.824 6.87073C89.0369 7.02152 89.1259 7.20661 89.1259 7.96159V8.10967H90.481V7.76156C90.481 6.71416 90.2226 6.15684 89.5593 5.77408C88.8423 5.3662 87.9929 5.27246 85.0158 5.27246C83.0151 5.27246 82.2941 5.36722 81.6607 5.71499C80.9125 6.13918 80.6211 6.74235 80.6211 7.86718C80.6211 8.99744 80.9373 9.62201 81.7133 10.0224C82.2886 10.3162 83.1156 10.4154 84.9924 10.4154H87.7566C88.2888 10.4154 88.6538 10.4836 88.9086 10.632C89.1619 10.772 89.2906 10.9666 89.2906 11.6434C89.2906 12.7408 88.9969 13.0597 87.0508 13.0597H84.0628C82.2323 13.0597 81.9877 12.7846 81.9877 11.6906V11.2128H80.633V11.7375C80.633 12.8875 80.9088 13.4648 81.6491 13.8663C82.2105 14.1835 82.8799 14.2854 84.4042 14.2854H86.6039C88.5248 14.2854 89.3148 14.1329 89.9865 13.6323C90.4963 13.2499 90.7045 12.6739 90.7045 11.6434C90.7045 10.5257 90.4226 9.93208 89.6995 9.52623Z" fill="#697F9C"/>
<mask id="mask1" mask-type="alpha" maskUnits="userSpaceOnUse" x="0" y="0" width="130" height="18">
<path fill-rule="evenodd" clip-rule="evenodd" d="M0 17.9827H129.382V0H0V17.9827Z" fill="white"/>
</mask>
<g mask="url(#mask1)">
<path fill-rule="evenodd" clip-rule="evenodd" d="M92.6899 14.1793H94.1157V5.37793H92.6899V14.1793Z" fill="#697F9C"/>
<path fill-rule="evenodd" clip-rule="evenodd" d="M97.8683 5.37842H96.4429V14.1797H104.479V12.8953H97.8683V5.37842Z" fill="#697F9C"/>
<path fill-rule="evenodd" clip-rule="evenodd" d="M105.771 14.1793H107.197V5.37793H105.771V14.1793Z" fill="#697F9C"/>
<path fill-rule="evenodd" clip-rule="evenodd" d="M118.744 6.43872L118.795 6.39457V5.37842H109.159V6.59223H116.413L108.912 13.058V14.1797H118.948V12.9422H111.211L118.744 6.43872Z" fill="#697F9C"/>
<path fill-rule="evenodd" clip-rule="evenodd" d="M122.112 12.9422V10.2272H129.053V9.02495H122.112V6.61566H129.347V5.37842H120.687V14.1797H129.382V12.9422H122.112Z" fill="#697F9C"/>
<path fill-rule="evenodd" clip-rule="evenodd" d="M35.0265 13.2155C33.2937 10.5881 31.5963 9.18652 31.5963 9.18652C31.5148 9.20588 31.4322 9.22422 31.3507 9.24358C29.2665 9.76015 27.1927 10.2859 25.1645 10.9366C23.1353 11.5775 21.1294 12.2842 19.2113 13.1842C17.5947 13.9324 16.0501 14.8168 14.6016 15.9087C14.7286 15.9678 14.8379 16.015 14.9235 16.0479C17.2815 16.9584 21.0738 18.2157 25.6994 17.2719C29.3751 16.522 31.889 14.594 33.1857 13.353L34.9514 17.9827C35.9502 16.5591 35.9835 14.6674 35.0265 13.2155Z" fill="#697F9C"/>
<path fill-rule="evenodd" clip-rule="evenodd" d="M13.3882 12.37C15.1417 11.7125 17.6172 11.0658 19.947 11.4404C20.3091 11.2533 20.6752 11.075 21.045 10.9055C18.0115 9.58132 15.4019 9.48012 13.6776 9.65434C12.2549 9.79834 11.2085 10.1448 10.6835 10.3523C10.4488 10.5683 10.2141 10.7853 9.97368 10.9972C9.65205 11.2893 9.31039 11.5634 9.00473 11.8738C8.90862 11.9645 8.81047 12.0545 8.71436 12.1448C9.41092 12.6783 10.0776 13.1586 10.7005 13.5855C11.3549 13.2367 12.2882 12.7826 13.3882 12.37Z" fill="#697F9C"/>
<path fill-rule="evenodd" clip-rule="evenodd" d="M25.5639 4.97847C24.9261 4.67994 24.2944 4.42149 23.6746 4.19971L23.0323 4.00375C22.6458 3.98032 22.2621 3.9725 21.8831 3.99424C21.0347 4.02515 20.2169 4.25133 19.4157 4.48296C19.0897 4.61983 18.7599 4.73903 18.4355 4.87284C20.4057 5.31164 22.7953 5.34764 25.5639 4.97847Z" fill="#697F9C"/>
<path fill-rule="evenodd" clip-rule="evenodd" d="M18.3608 6.76897C21.0907 6.63245 24.888 6.86746 27.8628 8.67901C27.876 8.67596 27.8893 8.67256 27.9025 8.66984C28.7621 8.4946 29.6217 8.32377 30.4877 8.19233L29.1931 7.13373C28.2326 6.42731 27.262 5.83569 26.3005 5.33984C24.5745 5.60475 23.1352 5.70052 21.9527 5.70052C19.7156 5.70052 18.3944 5.3609 17.7702 5.18701C17.5491 5.29433 17.3294 5.40267 17.1137 5.52086C16.7517 5.74331 16.3822 5.95082 16.0167 6.1658C15.6574 6.39267 15.3137 6.64977 14.9619 6.88988C14.7978 7.00399 14.6273 7.10894 14.4653 7.22712C15.4618 7.04441 16.8288 6.84573 18.3608 6.76897Z" fill="#697F9C"/>
<path fill-rule="evenodd" clip-rule="evenodd" d="M11.1382 13.8815C12.5123 14.7985 13.6385 15.4353 14.3469 15.7861C15.5166 14.3162 17.0395 13.1096 18.6635 12.1535C18.8551 12.0391 19.048 11.9287 19.2423 11.8197C16.1632 11.569 12.8604 12.9931 11.1382 13.8815Z" fill="#697F9C"/>
<path fill-rule="evenodd" clip-rule="evenodd" d="M18.3936 7.23016C16.3372 7.33238 14.5837 7.65774 13.646 7.8622L12.9067 8.43548C12.4638 8.8162 12.0165 9.19182 11.5713 9.5722C12.1174 9.42344 12.8021 9.28012 13.607 9.19725C15.4647 9.00604 18.3145 9.12152 21.6105 10.6532C22.6267 10.2148 23.6673 9.8371 24.7191 9.50937C25.543 9.26586 26.3693 9.03288 27.2024 8.83114C24.3975 7.30318 20.9262 7.10416 18.3936 7.23016Z" fill="#697F9C"/>
</g>
</svg>
