<svg width="27" height="17" viewBox="0 0 27 17" fill="none" xmlns="http://www.w3.org/2000/svg">
<path fill-rule="evenodd" clip-rule="evenodd" d="M2.7861 0.292969C1.8134 0.292969 1 1.07959 1 2.05159V14.9481C1 15.9201 1.8134 16.7068 2.7861 16.7068H24.4208C25.3935 16.7068 26.2069 15.9201 26.2069 14.9481V2.05159C26.2069 1.07959 25.3935 0.292969 24.4208 0.292969H2.7861ZM3.08836 1.46538H24.1185L14.1164 10.405C13.867 10.628 13.3399 10.628 13.0905 10.405L3.08836 1.46538ZM9.49084 8.75634L2.17241 2.21646V14.8199L9.49084 8.75634ZM25.0345 2.21646V14.8199L17.7161 8.75634L25.0345 2.21646ZM12.312 11.2752L10.3793 9.5532L3.15248 15.5344H24.0544L16.8276 9.5532L14.8949 11.2752C14.162 11.9302 13.0449 11.9302 12.312 11.2752Z" fill="#697F9C"/>
<path d="M24.1185 1.46538L24.2851 1.65178L24.7734 1.21538H24.1185V1.46538ZM3.08836 1.46538V1.21538H2.4335L2.92176 1.65178L3.08836 1.46538ZM14.1164 10.405L14.283 10.5915L14.283 10.5914L14.1164 10.405ZM13.0905 10.405L12.9239 10.5914L12.9239 10.5915L13.0905 10.405ZM2.17241 2.21646L2.339 2.03005L1.92241 1.65778V2.21646H2.17241ZM9.49084 8.75634L9.65034 8.94885L9.87404 8.7635L9.65742 8.56993L9.49084 8.75634ZM2.17241 14.8199H1.92241V15.3517L2.33191 15.0124L2.17241 14.8199ZM25.0345 14.8199L24.875 15.0124L25.2845 15.3517V14.8199H25.0345ZM25.0345 2.21646H25.2845V1.65778L24.8679 2.03005L25.0345 2.21646ZM17.7161 8.75634L17.5495 8.56993L17.3329 8.7635L17.5566 8.94885L17.7161 8.75634ZM10.3793 9.5532L10.5456 9.36654L10.3853 9.22371L10.2199 9.36061L10.3793 9.5532ZM12.312 11.2752L12.4786 11.0888L12.4783 11.0885L12.312 11.2752ZM3.15248 15.5344L2.99308 15.3418L2.45831 15.7844H3.15248V15.5344ZM24.0544 15.5344V15.7844H24.7486L24.2138 15.3418L24.0544 15.5344ZM16.8276 9.5532L16.987 9.36061L16.8216 9.22371L16.6613 9.36654L16.8276 9.5532ZM14.8949 11.2752L14.7286 11.0885L14.7283 11.0888L14.8949 11.2752ZM1.25 2.05159C1.25 1.2226 1.94647 0.542969 2.7861 0.542969V0.0429688C1.68032 0.0429688 0.75 0.936569 0.75 2.05159H1.25ZM1.25 14.9481V2.05159H0.75V14.9481H1.25ZM2.7861 16.4568C1.94647 16.4568 1.25 15.7771 1.25 14.9481H0.75C0.75 16.0632 1.68032 16.9568 2.7861 16.9568V16.4568ZM24.4208 16.4568H2.7861V16.9568H24.4208V16.4568ZM25.9569 14.9481C25.9569 15.7771 25.2604 16.4568 24.4208 16.4568V16.9568C25.5266 16.9568 26.4569 16.0632 26.4569 14.9481H25.9569ZM25.9569 2.05159V14.9481H26.4569V2.05159H25.9569ZM24.4208 0.542969C25.2604 0.542969 25.9569 1.2226 25.9569 2.05159H26.4569C26.4569 0.936569 25.5266 0.0429688 24.4208 0.0429688V0.542969ZM2.7861 0.542969H24.4208V0.0429688H2.7861V0.542969ZM24.1185 1.21538H3.08836V1.71538H24.1185V1.21538ZM14.283 10.5914L24.2851 1.65178L23.9519 1.27898L13.9498 10.2186L14.283 10.5914ZM12.9239 10.5915C13.109 10.7568 13.3706 10.8222 13.6034 10.8222C13.8362 10.8222 14.0979 10.7568 14.283 10.5915L13.9498 10.2186C13.8854 10.2762 13.7589 10.3222 13.6034 10.3222C13.448 10.3222 13.3215 10.2762 13.2571 10.2186L12.9239 10.5915ZM2.92176 1.65178L12.9239 10.5914L13.2571 10.2186L3.25496 1.27898L2.92176 1.65178ZM2.00583 2.40287L9.32426 8.94275L9.65742 8.56993L2.339 2.03005L2.00583 2.40287ZM2.42241 14.8199V2.21646H1.92241V14.8199H2.42241ZM9.33134 8.56383L2.01291 14.6274L2.33191 15.0124L9.65034 8.94885L9.33134 8.56383ZM25.2845 14.8199V2.21646H24.7845V14.8199H25.2845ZM17.5566 8.94885L24.875 15.0124L25.194 14.6274L17.8756 8.56383L17.5566 8.94885ZM24.8679 2.03005L17.5495 8.56993L17.8826 8.94275L25.2011 2.40287L24.8679 2.03005ZM10.213 9.73986L12.1457 11.4618L12.4783 11.0885L10.5456 9.36654L10.213 9.73986ZM3.31188 15.727L10.5387 9.74579L10.2199 9.36061L2.99308 15.3418L3.31188 15.727ZM24.0544 15.2844H3.15248V15.7844H24.0544V15.2844ZM16.6682 9.74579L23.895 15.727L24.2138 15.3418L16.987 9.36061L16.6682 9.74579ZM15.0612 11.4618L16.9939 9.73986L16.6613 9.36654L14.7286 11.0885L15.0612 11.4618ZM12.1454 11.4616C12.9732 12.2014 14.2337 12.2014 15.0615 11.4616L14.7283 11.0888C14.0903 11.659 13.1166 11.659 12.4786 11.0888L12.1454 11.4616Z" fill="#697F9C"/>
</svg>
