<svg width="12" height="18" viewBox="0 0 12 18" fill="none" xmlns="http://www.w3.org/2000/svg">
<path fill-rule="evenodd" clip-rule="evenodd" d="M5.75493 18.0002C4.93323 18.0002 3.65732 17.8374 2.82146 17.6764C0.157124 17.164 -0.307162 16.3872 0.207197 13.3021C0.43987 11.9153 0.697493 10.0514 0.624241 7.92869C0.575759 6.63916 0.872486 5.67927 1.5314 4.99505C2.34302 4.15247 3.72456 3.74268 5.75493 3.74268C5.92231 3.74268 6.05802 3.87839 6.05802 4.04577C6.05802 4.21316 5.92231 4.34887 5.75493 4.34887C3.89796 4.34887 2.65921 4.69779 1.96791 5.41545C1.42931 5.97476 1.18797 6.78974 1.2299 7.90693C1.30492 10.0843 1.04217 11.9875 0.804894 13.4023C0.322382 16.297 0.746682 16.6604 2.93594 17.0812C3.74367 17.2369 4.97127 17.3944 5.75493 17.3944C5.92231 17.3944 6.05802 17.5299 6.05802 17.6973C6.05802 17.8647 5.92231 18.0002 5.75493 18.0002Z" fill="white"/>
<path fill-rule="evenodd" clip-rule="evenodd" d="M4.18332 4.45154C4.05221 4.45154 3.93118 4.36554 3.89261 4.23337C3.52705 2.97976 3.31827 1.82187 3.25439 0.693716C3.24501 0.526508 3.37276 0.383541 3.53979 0.373987C3.70364 0.364964 3.84997 0.492182 3.85952 0.65939C3.92074 1.74119 4.12174 2.85467 4.47438 4.06351C4.52127 4.22417 4.42909 4.39244 4.26843 4.43933C4.23994 4.44764 4.21145 4.45154 4.18332 4.45154Z" fill="white"/>
<path fill-rule="evenodd" clip-rule="evenodd" d="M5.75475 18.0002C5.58737 18.0002 5.45166 17.8647 5.45166 17.6973C5.45166 17.5299 5.58737 17.3944 5.75475 17.3944C6.53647 17.3944 7.79592 17.233 8.584 17.0812C10.7734 16.6604 11.1977 16.297 10.7151 13.4019C10.4776 11.9875 10.2147 10.0843 10.29 7.90781C10.3322 6.79026 10.0908 5.97582 9.55256 5.41687C8.86038 4.69814 7.61792 4.34887 5.75475 4.34887C5.58737 4.34887 5.45166 4.21316 5.45166 4.04577C5.45166 3.87839 5.58737 3.74268 5.75475 3.74268C7.81963 3.74268 9.16507 4.14114 9.98889 4.99646C10.6475 5.68033 10.9444 6.63969 10.8959 7.92957C10.8223 10.0511 11.0803 11.9149 11.3127 13.3018C11.8269 16.3872 11.3626 17.164 8.69866 17.6764C7.86245 17.8374 6.58283 18.0002 5.75475 18.0002Z" fill="white"/>
<path fill-rule="evenodd" clip-rule="evenodd" d="M7.33673 4.45164C7.30878 4.45164 7.28011 4.44775 7.2518 4.43943C7.09114 4.39254 6.99913 4.22428 7.04585 4.06361C7.39866 2.85424 7.59966 1.74076 7.66088 0.659494C7.67044 0.492287 7.82862 0.364006 7.98044 0.374091C8.14782 0.383646 8.27557 0.526613 8.26601 0.69382C8.20232 1.82145 7.99353 2.97934 7.62762 4.23347C7.58905 4.36565 7.46802 4.45164 7.33673 4.45164Z" fill="white"/>
<path fill-rule="evenodd" clip-rule="evenodd" d="M5.7664 0.988596C5.51657 0.988596 5.24214 0.927022 4.93373 0.803695C4.49776 0.622687 4.10548 0.66356 3.73037 0.924898C3.59289 1.02097 3.4041 0.986827 3.30855 0.849876C3.21265 0.712748 3.24627 0.523779 3.38357 0.428055C3.9266 0.0488758 4.54164 -0.014999 5.16234 0.242446C5.70695 0.460257 5.96617 0.381874 6.13019 0.289158C6.91403 -0.149826 7.64124 -0.0871898 8.18055 0.464858C8.29733 0.584468 8.29521 0.776447 8.17525 0.893225C8.05563 1.01036 7.86348 1.00806 7.7467 0.888093C7.40238 0.535632 6.97029 0.512806 6.42709 0.817496C6.22432 0.931623 6.00669 0.988596 5.7664 0.988596Z" fill="white"/>
<path fill-rule="evenodd" clip-rule="evenodd" d="M3.91599 3.43456C3.77497 3.43456 3.64864 3.33547 3.61945 3.19179C3.586 3.02777 3.69199 2.86782 3.85601 2.83456C5.11404 2.57888 6.39526 2.57835 7.66391 2.83438C7.82811 2.86747 7.93427 3.02724 7.901 3.19144C7.86774 3.35529 7.70743 3.46198 7.5443 3.42854C6.35527 3.18861 5.1551 3.18879 3.97669 3.42836C3.95634 3.43261 3.93599 3.43456 3.91599 3.43456Z" fill="white"/>
<path fill-rule="evenodd" clip-rule="evenodd" d="M4.23485 6.75258C4.23219 6.75258 4.22936 6.7524 4.22671 6.7524C4.05932 6.74798 3.92733 6.60873 3.93175 6.44152C3.96572 5.15182 4.53776 4.25244 5.63248 3.76869C5.74625 3.71808 5.87967 3.74268 5.96813 3.83062C6.05678 3.9182 6.08261 4.05126 6.03325 4.16574C5.81544 4.67054 5.7098 5.20561 5.71883 5.75606C5.72166 5.92345 5.58825 6.06146 5.42104 6.06411C5.24923 6.07437 5.11564 5.93353 5.11299 5.76633C5.10715 5.42218 5.14024 5.08334 5.21154 4.75247C4.77875 5.15659 4.55705 5.72032 4.53759 6.45745C4.53334 6.622 4.39851 6.75258 4.23485 6.75258Z" fill="white"/>
<path fill-rule="evenodd" clip-rule="evenodd" d="M1.82568 11.1129C1.82568 13.285 3.58834 15.0519 5.75478 15.0519C7.92688 15.0519 9.69379 13.285 9.69379 11.1129C9.69379 8.94625 7.92688 7.18359 5.75478 7.18359C3.58834 7.18359 1.82568 8.94625 1.82568 11.1129ZM2.43187 11.1129C2.43187 9.28049 3.9224 7.78979 5.75478 7.78979C7.59246 7.78979 9.08795 9.28049 9.08795 11.1129C9.08795 12.9506 7.59246 14.446 5.75478 14.446C3.9224 14.446 2.43187 12.9506 2.43187 11.1129Z" fill="white"/>
<path fill-rule="evenodd" clip-rule="evenodd" d="M5.69233 13.6125C5.86131 13.6808 6.03931 13.7137 6.21625 13.7137C6.62427 13.7137 7.02485 13.5378 7.29132 13.2179C7.682 12.7522 7.72978 12.0901 7.40987 11.5706C7.37625 11.5154 7.32565 11.4726 7.26549 11.4482C6.70247 11.2207 6.05665 11.3774 5.65305 11.8467C5.26856 12.3205 5.22716 12.9823 5.54989 13.4933C5.58369 13.547 5.63359 13.5885 5.69233 13.6125ZM6.82633 12.8294C6.6317 13.0633 6.30932 13.1613 6.01436 13.0821C5.88519 12.8057 5.92412 12.4744 6.11787 12.2352C6.32347 11.996 6.64479 11.8994 6.94205 11.978C7.07228 12.2607 7.03087 12.5852 6.82633 12.8294Z" fill="white"/>
<path fill-rule="evenodd" clip-rule="evenodd" d="M3.4447 12.2384C3.70976 12.5654 4.10097 12.7426 4.5081 12.7426C4.68769 12.7426 4.87047 12.708 5.04688 12.6368C5.10562 12.6131 5.15552 12.5714 5.18949 12.5176C5.51771 11.9977 5.47507 11.3342 5.08068 10.8636C4.68239 10.401 4.02241 10.2457 3.47602 10.4863C3.42258 10.51 3.37694 10.5483 3.34473 10.5971C3.00979 11.1063 3.05314 11.784 3.4447 12.2384ZM3.90969 11.8498C3.70834 11.6159 3.67012 11.2822 3.8053 11.0097C4.09176 10.9255 4.41627 11.0203 4.61869 11.256C4.81951 11.4956 4.85773 11.8268 4.72503 12.1067C4.42405 12.1892 4.10769 12.0943 3.90969 11.8498Z" fill="white"/>
<path fill-rule="evenodd" clip-rule="evenodd" d="M5.56095 10.9995C5.73241 11.0748 5.91465 11.1113 6.09619 11.1113C6.49784 11.1113 6.89596 10.9336 7.16879 10.6081C7.55133 10.1495 7.59451 9.47496 7.27425 8.96821C7.24028 8.9146 7.19038 8.87302 7.13164 8.84931C6.55588 8.61628 5.912 8.77588 5.5353 9.24034C5.13807 9.7018 5.09472 10.3795 5.42967 10.8887C5.46187 10.9375 5.50752 10.9758 5.56095 10.9995ZM6.7038 10.2195C6.50067 10.4623 6.17688 10.561 5.89024 10.4757C5.75506 10.2036 5.79363 9.86918 6.00029 9.6289C6.19316 9.39109 6.50881 9.29537 6.80926 9.37906C6.93701 9.65261 6.89808 9.98631 6.7038 10.2195Z" fill="white"/>
</svg>
