<svg width="13" height="18" viewBox="0 0 13 18" fill="none" xmlns="http://www.w3.org/2000/svg">
<path fill-rule="evenodd" clip-rule="evenodd" d="M6.54794 10.8788C6.47868 10.8969 6.41956 10.9123 6.345 10.9123C6.255 10.9123 6.165 10.8898 6.075 10.8673C5.67 10.7323 5.2875 10.3723 4.95 9.78732C4.185 8.48232 4.545 6.63732 4.5675 6.56982C4.59 6.50232 4.635 6.43482 4.7025 6.41232C4.77 6.36732 4.8375 6.36732 4.905 6.41232C4.91625 6.42357 4.94438 6.44045 4.98656 6.46576L4.98657 6.46576L4.98657 6.46577L4.98659 6.46577C5.02877 6.49109 5.08501 6.52483 5.1525 6.56982L5.2425 5.37732C5.2875 4.79232 5.7825 4.31982 6.39 4.31982C6.9975 4.31982 7.4925 4.76982 7.5375 5.37732L7.605 6.54732C7.7175 6.45732 7.8075 6.41232 7.8075 6.41232C7.875 6.38982 7.9425 6.38982 8.01 6.41232C8.0775 6.43482 8.1225 6.50232 8.145 6.56982C8.145 6.5793 8.14924 6.60822 8.15593 6.65388C8.21281 7.04201 8.44698 8.63982 7.7625 9.78732C7.3575 10.5073 6.9075 10.7773 6.615 10.8673H6.5925C6.57709 10.8712 6.56235 10.875 6.54803 10.8788L6.54794 10.8788ZM7.335 9.64107L7.33501 9.64106C7.35188 9.61294 7.36875 9.58482 7.38 9.56232C7.8525 8.70732 7.8075 7.55982 7.7625 6.99732C7.47 7.19982 7.0425 7.53732 6.66 7.96482C6.84 8.21232 6.9975 8.50482 7.11 8.81982C7.2225 9.15732 7.29 9.44982 7.29 9.71982C7.30125 9.69732 7.31813 9.6692 7.335 9.64107ZM5.6925 5.39982C5.715 5.03982 6.0075 4.74732 6.39 4.74732C6.75 4.74732 7.065 5.03982 7.0875 5.39982L7.1775 6.86232C6.93 7.04232 6.6375 7.31232 6.3675 7.60482C6.1821 7.38571 5.97144 7.20447 5.78282 7.0422L5.78282 7.0422L5.78281 7.04219C5.71964 6.98784 5.65895 6.93563 5.6025 6.88482L5.6925 5.39982ZM6.6825 8.95482C6.3675 8.03232 5.445 7.31232 4.9725 6.99732C4.905 7.55982 4.8375 8.72982 5.3325 9.56232C5.6925 10.1698 6.0075 10.3723 6.21 10.4398C6.3225 10.4623 6.435 10.4623 6.525 10.4173H6.5475C6.66 10.3723 6.7275 10.2823 6.7725 10.1923C6.8625 9.98982 6.9075 9.62982 6.6825 8.95482Z" fill="white"/>
<path fill-rule="evenodd" clip-rule="evenodd" d="M6.32229 1.55229C6.48383 1.55229 6.61479 1.42133 6.61479 1.25979C6.61479 1.09824 6.48383 0.967285 6.32229 0.967285C6.16074 0.967285 6.02979 1.09824 6.02979 1.25979C6.02979 1.42133 6.16074 1.55229 6.32229 1.55229Z" fill="white"/>
<path fill-rule="evenodd" clip-rule="evenodd" d="M5.01742 1.305C5.01742 0.585 5.60242 0 6.32242 0C7.04242 0 7.62742 0.585 7.64992 1.305V1.4175H8.93242C9.06742 1.4175 9.15742 1.5075 9.15742 1.6425V2.0925H12.3749C12.5099 2.0925 12.5999 2.1825 12.5999 2.3175V17.775C12.5999 17.91 12.5099 18 12.3749 18H0.269922C0.134922 18 0.0449219 17.91 0.0449219 17.775V2.3175C0.0449219 2.1825 0.134922 2.0925 0.269922 2.0925H3.50992V1.6425C3.50992 1.5075 3.59992 1.4175 3.73492 1.4175H5.01742V1.305ZM0.494922 17.55H12.1499V2.5425H11.0924V16.29C11.0924 16.425 11.0024 16.515 10.8674 16.515H1.79992C1.66492 16.515 1.57492 16.425 1.57492 16.29V2.5425H0.494922V17.55ZM10.6424 2.5425V16.065H2.02492V2.5425H3.50992V3.195C3.50992 3.33 3.59992 3.42 3.73492 3.42H8.93242C9.06742 3.42 9.15742 3.33 9.15742 3.195V2.5425H10.6424ZM8.70742 2.97V1.8675H7.40242C7.26742 1.8675 7.17742 1.7775 7.17742 1.6425V1.305C7.17742 0.8325 6.79492 0.45 6.32242 0.45C5.84992 0.45 5.46742 0.8325 5.46742 1.305V1.6425C5.46742 1.7775 5.37742 1.8675 5.24242 1.8675H3.95992V2.97H8.70742Z" fill="white"/>
<path fill-rule="evenodd" clip-rule="evenodd" d="M3.01514 12.5551C3.01514 12.6901 3.10514 12.7801 3.24014 12.7801H9.42764C9.56264 12.7801 9.65264 12.6901 9.65264 12.5551C9.65264 12.4201 9.56264 12.3301 9.42764 12.3301H3.24014C3.10514 12.3301 3.01514 12.4201 3.01514 12.5551Z" fill="white"/>
<path fill-rule="evenodd" clip-rule="evenodd" d="M9.42764 14.3325H3.24014C3.10514 14.3325 3.01514 14.4225 3.01514 14.5575C3.01514 14.6925 3.10514 14.7825 3.24014 14.7825H9.42764C9.56264 14.7825 9.65264 14.6925 9.65264 14.5575C9.65264 14.4225 9.54014 14.3325 9.42764 14.3325Z" fill="white"/>
</svg>
