<svg width="21" height="21" viewBox="0 0 21 21" fill="none" xmlns="http://www.w3.org/2000/svg">
<path fill-rule="evenodd" clip-rule="evenodd" d="M0.769531 10.5C0.769531 5.23337 5.04834 0.95459 10.315 0.95459C15.5817 0.95459 19.8604 5.23337 19.8604 10.5C19.8604 15.7667 15.5817 20.0455 10.315 20.0455C5.04834 20.0455 0.769531 15.7667 0.769531 10.5ZM18.9927 10.5C18.9927 5.70234 15.1127 1.82236 10.315 1.82236C5.51731 1.82236 1.6373 5.70234 1.6373 10.5C1.6373 15.2977 5.51731 19.1777 10.315 19.1777C15.1127 19.1777 18.9927 15.2977 18.9927 10.5ZM13.7386 6.59509C13.7086 6.59878 13.6791 6.60559 13.6505 6.61542L5.84055 9.21873C5.66822 9.27601 5.54978 9.43455 5.54373 9.61605C5.53767 9.79756 5.64529 9.96364 5.81344 10.0323L9.33197 11.4831L10.7828 15.0016C10.8514 15.1697 11.0175 15.2774 11.199 15.2713C11.3805 15.2653 11.539 15.1468 11.5963 14.9745L14.1996 7.16456C14.247 7.02379 14.2191 6.86857 14.1256 6.75313C14.0322 6.63768 13.8862 6.57806 13.7386 6.59509ZM11.1353 13.5915L13.0946 7.70691L7.21678 9.67295L9.82687 10.7441C9.93458 10.7882 10.0201 10.8737 10.0641 10.9814L11.1353 13.5915Z" fill="white"/>
<path d="M13.6505 6.61542L13.7295 6.85261L13.7318 6.85184L13.6505 6.61542ZM13.7386 6.59509L13.7099 6.34673L13.7081 6.34696L13.7386 6.59509ZM5.84055 9.21873L5.9194 9.45597L5.91961 9.4559L5.84055 9.21873ZM5.54373 9.61605L5.79359 9.62438V9.62438L5.54373 9.61605ZM5.81344 10.0323L5.90874 9.80114L5.90791 9.8008L5.81344 10.0323ZM9.33197 11.4831L9.56309 11.3878L9.52344 11.2916L9.42727 11.2519L9.33197 11.4831ZM10.7828 15.0016L11.0142 14.9071L11.0139 14.9063L10.7828 15.0016ZM11.5963 14.9745L11.3591 14.8954L11.3591 14.8956L11.5963 14.9745ZM14.1996 7.16456L13.9627 7.08482L13.9624 7.0855L14.1996 7.16456ZM13.0946 7.70691L13.3318 7.78589L13.4898 7.31108L13.0153 7.46983L13.0946 7.70691ZM11.1353 13.5915L10.904 13.6864L11.1597 14.3095L11.3725 13.6704L11.1353 13.5915ZM7.21678 9.67295L7.13748 9.43586L6.50009 9.64906L7.12187 9.90423L7.21678 9.67295ZM9.82687 10.7441L9.73195 10.9754L9.73219 10.9755L9.82687 10.7441ZM10.0641 10.9814L9.83277 11.0761L9.83286 11.0763L10.0641 10.9814ZM10.315 0.70459C4.91027 0.70459 0.519531 5.0953 0.519531 10.5H1.01953C1.01953 5.37144 5.18641 1.20459 10.315 1.20459V0.70459ZM20.1104 10.5C20.1104 5.0953 15.7197 0.70459 10.315 0.70459V1.20459C15.4436 1.20459 19.6104 5.37144 19.6104 10.5H20.1104ZM10.315 20.2955C15.7197 20.2955 20.1104 15.9048 20.1104 10.5H19.6104C19.6104 15.6287 15.4436 19.7955 10.315 19.7955V20.2955ZM0.519531 10.5C0.519531 15.9048 4.91027 20.2955 10.315 20.2955V19.7955C5.18641 19.7955 1.01953 15.6287 1.01953 10.5H0.519531ZM10.315 2.07236C14.9746 2.07236 18.7427 5.84042 18.7427 10.5H19.2427C19.2427 5.56427 15.2508 1.57236 10.315 1.57236V2.07236ZM1.8873 10.5C1.8873 5.84042 5.65538 2.07236 10.315 2.07236V1.57236C5.37924 1.57236 1.3873 5.56427 1.3873 10.5H1.8873ZM10.315 18.9277C5.65538 18.9277 1.8873 15.1597 1.8873 10.5H1.3873C1.3873 15.4358 5.37924 19.4277 10.315 19.4277V18.9277ZM18.7427 10.5C18.7427 15.1597 14.9746 18.9277 10.315 18.9277V19.4277C15.2508 19.4277 19.2427 15.4358 19.2427 10.5H18.7427ZM13.7318 6.85184C13.7439 6.84767 13.7564 6.84478 13.7691 6.84322L13.7081 6.34696C13.6608 6.35277 13.6142 6.36352 13.5692 6.37901L13.7318 6.85184ZM5.91961 9.4559L13.7295 6.85259L13.5714 6.37825L5.7615 8.98156L5.91961 9.4559ZM5.79359 9.62438C5.79615 9.54745 5.84635 9.48025 5.9194 9.45597L5.76171 8.98149C5.49008 9.07177 5.3034 9.32165 5.29386 9.60773L5.79359 9.62438ZM5.90791 9.8008C5.83664 9.77171 5.79102 9.70132 5.79359 9.62438L5.29386 9.60773C5.28433 9.8938 5.45395 10.1556 5.71896 10.2637L5.90791 9.8008ZM9.42727 11.2519L5.90874 9.80114L5.71814 10.2634L9.23667 11.7142L9.42727 11.2519ZM11.0139 14.9063L9.56309 11.3878L9.10084 11.5784L10.5516 15.0969L11.0139 14.9063ZM11.1906 15.0214C11.1137 15.024 11.0433 14.9784 11.0142 14.9071L10.5513 15.0961C10.6595 15.3611 10.9212 15.5307 11.2073 15.5212L11.1906 15.0214ZM11.3591 14.8956C11.3348 14.9687 11.2676 15.0189 11.1906 15.0214L11.2073 15.5212C11.4934 15.5116 11.7433 15.325 11.8335 15.0533L11.3591 14.8956ZM13.9624 7.0855L11.3591 14.8954L11.8335 15.0535L14.4368 7.24362L13.9624 7.0855ZM13.9313 6.91043C13.9709 6.95936 13.9827 7.02515 13.9627 7.08482L14.4365 7.2443C14.5112 7.02243 14.4672 6.77778 14.3199 6.59583L13.9313 6.91043ZM13.7673 6.84344C13.8298 6.83622 13.8917 6.86149 13.9313 6.91043L14.3199 6.59583C14.1726 6.41388 13.9425 6.3199 13.7099 6.34673L13.7673 6.84344ZM12.8574 7.62794L10.8981 13.5125L11.3725 13.6704L13.3318 7.78589L12.8574 7.62794ZM7.29608 9.91004L13.1739 7.944L13.0153 7.46983L7.13748 9.43586L7.29608 9.91004ZM9.92178 10.5128L7.3117 9.44167L7.12187 9.90423L9.73195 10.9754L9.92178 10.5128ZM10.2955 10.8867C10.2261 10.7169 10.0913 10.5822 9.92154 10.5127L9.73219 10.9755C9.77785 10.9942 9.81409 11.0304 9.83277 11.0761L10.2955 10.8867ZM11.3666 13.4966L10.2954 10.8865L9.83286 11.0763L10.904 13.6864L11.3666 13.4966Z" fill="white"/>
</svg>
