<svg width="16" height="13" viewBox="0 0 16 13" fill="none" xmlns="http://www.w3.org/2000/svg">
<path fill-rule="evenodd" clip-rule="evenodd" d="M8.56192 8.69201C8.61319 8.63994 8.66085 8.58445 8.70456 8.5259L11.6296 8.2027C11.9621 8.1676 12.2146 7.88712 12.2146 7.5527C12.2146 7.21828 11.9621 6.93781 11.6296 6.9027L8.70276 6.57951C8.29661 6.04615 7.60228 5.82057 6.96021 6.01336C6.31814 6.20616 5.86293 6.7769 5.81776 7.44577C5.7726 8.11464 6.14695 8.74141 6.75728 9.01876C7.36761 9.29612 8.08596 9.16592 8.56012 8.69201H8.56192Z" fill="#697F9C"/>
<path fill-rule="evenodd" clip-rule="evenodd" d="M12.6208 12.7705C15.5015 9.88923 15.5013 5.2183 12.6202 2.33742C9.73915 -0.543463 5.06822 -0.543463 2.18716 2.33742C-0.693896 5.2183 -0.694178 9.88923 2.18653 12.7705C2.45418 13.0367 2.88666 13.0367 3.15431 12.7705L3.74111 12.1837L4.33334 11.6005C4.60058 11.3332 4.60058 10.8999 4.33334 10.6327C4.06609 10.3654 3.6328 10.3654 3.36556 10.6327L2.78056 11.2177C2.10101 10.3587 1.67512 9.32678 1.55098 8.23852H2.39959C2.77187 8.23066 3.06953 7.92658 3.06945 7.55422C3.07186 7.3721 3.00157 7.19654 2.87415 7.06641C2.74672 6.93628 2.57268 6.86231 2.39056 6.86088H1.54195C1.66675 5.77389 2.0926 4.74334 2.77153 3.88533L3.35653 4.47033C3.52844 4.64482 3.78038 4.71434 4.01745 4.65271C4.25451 4.59107 4.44069 4.40765 4.50585 4.17153C4.57101 3.9354 4.50525 3.68246 4.33334 3.50797L3.74834 2.92297C4.60483 2.24496 5.63338 1.81916 6.71848 1.69338V2.51672C6.71848 2.6982 6.79057 2.87226 6.9189 3.00059C7.04724 3.12892 7.22129 3.20102 7.40278 3.20102C7.78071 3.20102 8.08709 2.89465 8.08709 2.51672V1.69338C9.1749 1.81838 10.2061 2.24488 11.0644 2.92477L10.4722 3.50797C10.205 3.77521 10.205 4.2085 10.4722 4.47574C10.7395 4.74299 11.1728 4.74299 11.44 4.47574L12.025 3.89074C13.7188 6.03871 13.7188 9.06791 12.025 11.2159L11.44 10.6309C11.2668 10.458 11.0145 10.3907 10.7782 10.4542C10.5419 10.5178 10.3574 10.7026 10.2943 10.939C10.2312 11.1754 10.299 11.4276 10.4722 11.6005L11.0572 12.1855L11.644 12.7723C11.7732 12.9027 11.9492 12.9759 12.1328 12.9756C12.3164 12.9753 12.4922 12.9014 12.6208 12.7705Z" fill="#697F9C"/>
</svg>
