<svg width="13" height="13" viewBox="0 0 13 13" fill="none" xmlns="http://www.w3.org/2000/svg">
<path opacity="0.50472" fill-rule="evenodd" clip-rule="evenodd" d="M9.30093 8.57426L12.4249 11.7178C12.6017 11.9143 12.6017 12.209 12.4249 12.4055C12.2284 12.6216 11.8944 12.6413 11.6783 12.4448L8.55433 9.32086C6.62889 10.8926 3.83897 10.8926 1.91354 9.32086C-0.326257 7.49366 -0.640614 4.17326 1.18659 1.93347C3.01379 -0.306329 6.31454 -0.659981 8.55433 1.18687C10.7941 3.03372 11.1281 6.33447 9.30093 8.57426ZM1.04906 5.27351C1.04906 7.59189 2.9352 9.45839 5.25358 9.45839C7.55232 9.45839 9.43846 7.57225 9.43846 5.27351C9.43846 2.95513 7.55232 1.06898 5.23393 1.08863C2.91555 1.08863 1.04906 2.95513 1.04906 5.27351Z" fill="#212933"/>
</svg>
