<svg width="19" height="17" viewBox="0 0 19 17" fill="none" xmlns="http://www.w3.org/2000/svg">
<path fill-rule="evenodd" clip-rule="evenodd" d="M18.1088 11.6411H12.011C11.8816 11.6411 11.7893 11.752 11.7893 11.8629C11.7893 13.3411 10.5697 16.4455 9.23925 16.4455C7.90882 16.4455 6.68925 13.3411 6.68925 11.8813C6.68925 11.752 6.57838 11.6596 6.46751 11.6596H0.369688C0.240341 11.6596 0.147949 11.7705 0.147949 11.8813C0.147949 11.9922 0.258819 12.1031 0.369688 12.1031H6.24578C6.30121 12.9161 6.61534 14.0248 7.0773 14.9487C7.70556 16.2052 8.48165 16.9074 9.23925 16.9074C9.99686 16.9074 10.7729 16.2052 11.4012 14.9487C11.8632 14.0248 12.1773 12.9161 12.2327 12.1031H18.1088C18.2382 12.1031 18.3306 11.9922 18.3306 11.8813C18.3306 11.7705 18.2382 11.6411 18.1088 11.6411Z" fill="white"/>
<path fill-rule="evenodd" clip-rule="evenodd" d="M9.23947 15.7436C8.81447 15.7436 8.46338 15.3925 8.46338 14.9675C8.46338 14.5425 8.81447 14.1914 9.23947 14.1914C9.66447 14.1914 10.0156 14.5425 10.0156 14.9675C10.0156 15.3925 9.66447 15.7436 9.23947 15.7436ZM9.23947 15.3001C9.42425 15.3001 9.57207 15.1523 9.57207 14.9675C9.57207 14.7827 9.42425 14.6349 9.23947 14.6349C9.05468 14.6349 8.90686 14.7827 8.90686 14.9675C8.90686 15.1523 9.05468 15.3001 9.23947 15.3001Z" fill="white"/>
<path fill-rule="evenodd" clip-rule="evenodd" d="M10.1262 12.1953C10.5512 12.1953 10.9023 12.5464 10.9023 12.9714C10.9023 13.4149 10.5512 13.7475 10.1262 13.7475C9.70118 13.7475 9.3501 13.3964 9.3501 12.9714C9.3501 12.5464 9.70118 12.1953 10.1262 12.1953ZM10.1262 12.6388C9.9414 12.6388 9.79358 12.7866 9.79358 12.9714C9.79358 13.1562 9.92292 13.304 10.1077 13.304C10.2925 13.304 10.4588 13.1562 10.4588 12.9714C10.4588 12.7866 10.311 12.6388 10.1262 12.6388Z" fill="white"/>
<path fill-rule="evenodd" clip-rule="evenodd" d="M12.288 3.32589C12.288 3.75089 11.9369 4.10198 11.5119 4.10198C11.0869 4.10198 10.7358 3.75089 10.7358 3.32589C10.7358 2.90089 11.0869 2.5498 11.5119 2.5498C11.9369 2.5498 12.288 2.90089 12.288 3.32589ZM11.8445 3.32589C11.8445 3.14111 11.6967 2.99328 11.5119 2.99328C11.3271 2.99328 11.1793 3.14111 11.1793 3.32589C11.1793 3.51067 11.3271 3.6585 11.5119 3.6585C11.6967 3.6585 11.8445 3.51067 11.8445 3.32589Z" fill="white"/>
<path fill-rule="evenodd" clip-rule="evenodd" d="M5.54355 6.65207C5.67289 6.78142 5.8392 6.85533 6.0055 6.91076L5.50659 7.40968C5.32181 7.59446 5.22942 7.83468 5.22942 8.09337C5.22942 8.35207 5.32181 8.59229 5.50659 8.77707L5.56202 8.8325C5.74681 9.01729 5.98702 9.10968 6.24572 9.10968C6.50442 9.10968 6.74463 9.01729 6.92942 8.8325L7.42833 8.33359C7.46529 8.49989 7.55768 8.6662 7.68702 8.79555L7.74246 8.85098C7.92724 9.03576 8.16746 9.12815 8.42615 9.12815C8.68485 9.12815 8.92507 9.03576 9.10985 8.85098L9.8305 8.13033C9.86746 8.29663 9.95985 8.46294 10.0892 8.59229L10.1446 8.64772C10.3294 8.8325 10.5696 8.92489 10.8283 8.92489C11.087 8.92489 11.3272 8.8325 11.512 8.64772L14.4316 5.72815C15.0044 5.08142 15.337 4.24989 15.337 3.36294C15.337 2.47598 14.9859 1.66294 14.3762 1.03468C13.9142 0.57272 13.3414 0.25859 12.6946 0.129242C12.6803 0.129242 12.6383 0.123695 12.5867 0.116899C12.5053 0.106153 12.4001 0.0922852 12.3435 0.0922852H7.29898C6.54137 0.0922852 5.91311 0.702068 5.91311 1.47815C5.91311 2.25424 6.54137 2.86402 7.29898 2.86402H7.89029L5.48811 5.2662C5.30333 5.45098 5.21094 5.6912 5.21094 5.94989C5.21094 6.20859 5.30333 6.44881 5.48811 6.63359L5.54355 6.65207ZM5.82072 5.58033L8.53702 2.86402H9.31311C9.44246 2.86402 9.53485 2.75315 9.53485 2.64229C9.53485 2.53142 9.42398 2.42055 9.31311 2.42055H7.29898C6.80007 2.42055 6.37507 2.01402 6.37507 1.49663C6.37507 0.979242 6.78159 0.57272 7.29898 0.57272H12.3251C12.362 0.57272 12.5099 0.591198 12.6022 0.609676C13.1566 0.720546 13.6555 0.979242 14.0435 1.38576C14.5794 1.92163 14.8751 2.64229 14.8751 3.38142C14.8751 4.12055 14.5794 4.85968 14.0435 5.39555L11.1425 8.27815C10.9577 8.46294 10.6251 8.46294 10.4403 8.27815L10.3849 8.22272C10.2001 8.03794 10.2001 7.70533 10.3849 7.52055L11.937 5.96837C12.0294 5.87598 12.0294 5.72815 11.937 5.63576C11.8446 5.54337 11.6968 5.54337 11.6044 5.63576L10.0522 7.20642L8.75876 8.49989C8.57398 8.68468 8.24137 8.68468 8.05659 8.49989L8.00115 8.44446C7.81637 8.25968 7.81637 7.92707 8.00115 7.74229L9.22072 6.52272C9.33159 6.57815 9.44246 6.61511 9.57181 6.61511C9.99681 6.61511 10.3479 6.26402 10.3479 5.83902C10.3479 5.70968 10.3109 5.59881 10.2555 5.48794L10.7729 4.97055C10.8653 4.87815 10.8653 4.73033 10.7729 4.63794C10.6805 4.54555 10.5327 4.54555 10.4403 4.63794L9.94137 5.13685C9.8305 5.08142 9.70116 5.04446 9.57181 5.04446C9.14681 5.04446 8.79572 5.39555 8.79572 5.82055C8.79572 5.94989 8.83268 6.07924 8.88811 6.19011L7.68702 7.3912L6.57833 8.49989C6.39355 8.68468 6.06094 8.68468 5.87615 8.49989L5.82072 8.44446C5.72833 8.35207 5.67289 8.22272 5.67289 8.09337C5.67289 7.96402 5.72833 7.83468 5.82072 7.74229L6.91094 6.65207L9.68268 3.88033C9.77507 3.78794 9.77507 3.64011 9.68268 3.54772C9.59029 3.45533 9.44246 3.45533 9.35007 3.54772L6.57833 6.31946C6.39355 6.50424 6.06094 6.50424 5.87615 6.31946L5.82072 6.2825C5.72833 6.19011 5.67289 6.06076 5.67289 5.93142C5.67289 5.78359 5.72833 5.67272 5.82072 5.58033ZM9.57181 5.50642C9.38702 5.50642 9.2392 5.65424 9.2392 5.83902C9.2392 6.00533 9.38702 6.17163 9.57181 6.17163C9.75659 6.17163 9.90442 6.02381 9.90442 5.83902C9.90442 5.65424 9.75659 5.50642 9.57181 5.50642Z" fill="white"/>
</svg>
