<svg width="21" height="17" viewBox="0 0 21 17" fill="none" xmlns="http://www.w3.org/2000/svg">
<path fill-rule="evenodd" clip-rule="evenodd" d="M0.975571 16.8885C0.864096 16.8885 0.780489 16.8606 0.696883 16.8328C0.306719 16.6934 0.083768 16.3033 0.167375 15.941C0.202795 15.7993 0.226961 15.6126 0.254177 15.4023C0.269788 15.2817 0.286402 15.1533 0.306719 15.0213C0.669014 11.9278 1.56082 4.76555 11.4264 3.6508V1.11473C11.4264 0.780306 11.6215 0.501618 11.928 0.334405C12.2625 0.167192 12.6248 0.19506 12.8756 0.390142L20.3166 6.27047C20.5116 6.43768 20.6231 6.63277 20.6231 6.88358C20.6231 7.1344 20.5395 7.35736 20.3444 7.4967L12.9034 13.7672C12.6526 14.018 12.3182 14.1016 12.0116 13.9623C11.6772 13.8229 11.4264 13.4606 11.4264 13.0983V10.5901C5.35098 10.3951 3.37229 13.1541 1.61655 16.4983C1.47721 16.7492 1.22639 16.8885 0.975571 16.8885ZM12.5411 3.90162C12.5411 4.31965 12.1231 4.70981 11.7608 4.73768C3.26082 5.60162 1.95098 11.1475 1.50508 14.3803C3.31656 11.5098 5.85262 9.22457 11.7329 9.47539C12.151 9.50326 12.5411 9.89342 12.5411 10.3115V12.6524L19.3133 6.93932L12.5411 1.56063V3.90162Z" fill="#697F9C"/>
</svg>
