<svg width="18" height="17" viewBox="0 0 18 17" fill="none" xmlns="http://www.w3.org/2000/svg">
<path fill-rule="evenodd" clip-rule="evenodd" d="M9 12.5C6.519 12.5 4.5 10.481 4.5 8C4.5 5.519 6.519 3.5 9 3.5C11.481 3.5 13.5 5.519 13.5 8C13.5 10.481 11.481 12.5 9 12.5ZM17 8.5V7.5H14.4745C14.36 6.2345 13.8135 5.094 12.986 4.221L15.3535 1.8535L14.6465 1.1465L12.233 3.56C11.451 2.9895 10.5165 2.6175 9.5 2.5255V0H8.5V2.5255C7.4835 2.6175 6.549 2.9895 5.767 3.56L3.3535 1.1465L2.6465 1.8535L5.014 4.221C4.1865 5.094 3.64 6.2345 3.5255 7.5H1V8.5H3.5255C3.6515 9.8895 4.298 11.128 5.266 12.027L2.6465 14.6465L3.3535 15.3535L6.064 12.643C6.782 13.0985 7.6095 13.394 8.5 13.4745V16H9.5V13.4745C10.3905 13.394 11.218 13.0985 11.936 12.643L14.6465 15.3535L15.3535 14.6465L12.734 12.027C13.702 11.128 14.3485 9.8895 14.4745 8.5H17Z" fill="#697F9C"/>
<path d="M17 8.5V8.75H17.25V8.5H17ZM17 7.5H17.25V7.25H17V7.5ZM14.4745 7.5L14.2255 7.52253L14.2461 7.75H14.4745V7.5ZM12.986 4.221L12.8092 4.04422L12.6371 4.21633L12.8046 4.39299L12.986 4.221ZM15.3535 1.8535L15.5303 2.03028L15.7071 1.8535L15.5303 1.67672L15.3535 1.8535ZM14.6465 1.1465L14.8233 0.969723L14.6465 0.792947L14.4697 0.969723L14.6465 1.1465ZM12.233 3.56L12.0857 3.76197L12.2585 3.88806L12.4098 3.73678L12.233 3.56ZM9.5 2.5255H9.25V2.7539L9.47747 2.77448L9.5 2.5255ZM9.5 0H9.75V-0.25H9.5V0ZM8.5 0V-0.25H8.25V0H8.5ZM8.5 2.5255L8.52253 2.77448L8.75 2.7539V2.5255H8.5ZM5.767 3.56L5.59022 3.73678L5.7415 3.88806L5.91434 3.76197L5.767 3.56ZM3.3535 1.1465L3.53028 0.969723L3.3535 0.792947L3.17672 0.969723L3.3535 1.1465ZM2.6465 1.8535L2.46972 1.67672L2.29295 1.8535L2.46972 2.03028L2.6465 1.8535ZM5.014 4.221L5.19544 4.39299L5.36289 4.21633L5.19078 4.04422L5.014 4.221ZM3.5255 7.5V7.75H3.7539L3.77448 7.52253L3.5255 7.5ZM1 7.5V7.25H0.75V7.5H1ZM1 8.5H0.75V8.75H1V8.5ZM3.5255 8.5L3.77448 8.47742L3.75386 8.25H3.5255V8.5ZM5.266 12.027L5.44278 12.2038L5.62621 12.0203L5.43613 11.8438L5.266 12.027ZM2.6465 14.6465L2.46972 14.4697L2.29295 14.6465L2.46972 14.8233L2.6465 14.6465ZM3.3535 15.3535L3.17672 15.5303L3.3535 15.7071L3.53028 15.5303L3.3535 15.3535ZM6.064 12.643L6.19792 12.4319L6.02883 12.3246L5.88722 12.4662L6.064 12.643ZM8.5 13.4745H8.75V13.2461L8.52251 13.2255L8.5 13.4745ZM8.5 16H8.25V16.25H8.5V16ZM9.5 16V16.25H9.75V16H9.5ZM9.5 13.4745L9.47749 13.2255L9.25 13.2461V13.4745H9.5ZM11.936 12.643L12.1128 12.4662L11.9712 12.3246L11.8021 12.4319L11.936 12.643ZM14.6465 15.3535L14.4697 15.5303L14.6465 15.7071L14.8233 15.5303L14.6465 15.3535ZM15.3535 14.6465L15.5303 14.8233L15.7071 14.6465L15.5303 14.4697L15.3535 14.6465ZM12.734 12.027L12.5639 11.8438L12.3738 12.0203L12.5572 12.2038L12.734 12.027ZM14.4745 8.5V8.25H14.2461L14.2255 8.47742L14.4745 8.5ZM9 12.25C6.65707 12.25 4.75 10.3429 4.75 8H4.25C4.25 10.6191 6.38093 12.75 9 12.75V12.25ZM4.75 8C4.75 5.65707 6.65707 3.75 9 3.75V3.25C6.38093 3.25 4.25 5.38093 4.25 8H4.75ZM9 3.75C11.3429 3.75 13.25 5.65707 13.25 8H13.75C13.75 5.38093 11.6191 3.25 9 3.25V3.75ZM13.25 8C13.25 10.3429 11.3429 12.25 9 12.25V12.75C11.6191 12.75 13.75 10.6191 13.75 8H13.25ZM17.25 8.5V7.5H16.75V8.5H17.25ZM17 7.25H14.4745V7.75H17V7.25ZM14.7235 7.47747C14.6037 6.15351 14.0319 4.96099 13.1674 4.04902L12.8046 4.39299C13.5951 5.22701 14.1163 6.31549 14.2255 7.52253L14.7235 7.47747ZM13.1628 4.39778L15.5303 2.03028L15.1767 1.67672L12.8092 4.04422L13.1628 4.39778ZM15.5303 1.67672L14.8233 0.969723L14.4697 1.32328L15.1767 2.03028L15.5303 1.67672ZM14.4697 0.969723L12.0562 3.38322L12.4098 3.73678L14.8233 1.32328L14.4697 0.969723ZM12.3803 3.35803C11.5634 2.76207 10.5862 2.37278 9.52253 2.27652L9.47747 2.77448C10.4468 2.86222 11.3386 3.21693 12.0857 3.76197L12.3803 3.35803ZM9.75 2.5255V0H9.25V2.5255H9.75ZM9.5 -0.25H8.5V0.25H9.5V-0.25ZM8.25 0V2.5255H8.75V0H8.25ZM8.47747 2.27652C7.41385 2.37278 6.43656 2.76207 5.61966 3.35803L5.91434 3.76197C6.66144 3.21693 7.55315 2.86222 8.52253 2.77448L8.47747 2.27652ZM5.94378 3.38322L3.53028 0.969723L3.17672 1.32328L5.59022 3.73678L5.94378 3.38322ZM3.17672 0.969723L2.46972 1.67672L2.82328 2.03028L3.53028 1.32328L3.17672 0.969723ZM2.46972 2.03028L4.83722 4.39778L5.19078 4.04422L2.82328 1.67672L2.46972 2.03028ZM4.83256 4.04902C3.96811 4.96099 3.39631 6.15351 3.27652 7.47747L3.77448 7.52253C3.88369 6.31549 4.40489 5.22701 5.19544 4.39299L4.83256 4.04902ZM3.5255 7.25H1V7.75H3.5255V7.25ZM0.75 7.5V8.5H1.25V7.5H0.75ZM1 8.75H3.5255V8.25H1V8.75ZM3.27652 8.52258C3.40835 9.97631 4.08478 11.2712 5.09587 12.2102L5.43613 11.8438C4.51122 10.9848 3.89465 9.80269 3.77448 8.47742L3.27652 8.52258ZM5.08922 11.8502L2.46972 14.4697L2.82328 14.8233L5.44278 12.2038L5.08922 11.8502ZM2.46972 14.8233L3.17672 15.5303L3.53028 15.1767L2.82328 14.4697L2.46972 14.8233ZM3.53028 15.5303L6.24078 12.8198L5.88722 12.4662L3.17672 15.1767L3.53028 15.5303ZM5.93008 12.8541C6.68028 13.33 7.54575 13.6393 8.47749 13.7235L8.52251 13.2255C7.67324 13.1487 6.88372 12.867 6.19792 12.4319L5.93008 12.8541ZM8.25 13.4745V16H8.75V13.4745H8.25ZM8.5 16.25H9.5V15.75H8.5V16.25ZM9.75 16V13.4745H9.25V16H9.75ZM9.52251 13.7235C10.4542 13.6393 11.3197 13.33 12.0699 12.8541L11.8021 12.4319C11.1163 12.867 10.3268 13.1487 9.47749 13.2255L9.52251 13.7235ZM11.7592 12.8198L14.4697 15.5303L14.8233 15.1767L12.1128 12.4662L11.7592 12.8198ZM14.8233 15.5303L15.5303 14.8233L15.1767 14.4697L14.4697 15.1767L14.8233 15.5303ZM15.5303 14.4697L12.9108 11.8502L12.5572 12.2038L15.1767 14.8233L15.5303 14.4697ZM12.9041 12.2102C13.9152 11.2712 14.5917 9.97631 14.7235 8.52258L14.2255 8.47742C14.1053 9.80269 13.4888 10.9848 12.5639 11.8438L12.9041 12.2102ZM14.4745 8.75H17V8.25H14.4745V8.75Z" fill="#697F9C"/>
<path fill-rule="evenodd" clip-rule="evenodd" d="M6 8H7C7 6.897 7.897 6 9 6V5C7.3455 5 6 6.3455 6 8Z" fill="#697F9C"/>
</svg>
