<svg width="40" height="40" viewBox="0 0 40 40" fill="none" xmlns="http://www.w3.org/2000/svg">
<g filter="url(#filter0_f)">
<path fill-rule="evenodd" clip-rule="evenodd" d="M20 27.875C15.6582 27.875 12.125 24.3418 12.125 20C12.125 15.6582 15.6582 12.125 20 12.125C24.3418 12.125 27.875 15.6582 27.875 20C27.875 24.3418 24.3418 27.875 20 27.875ZM34 20.875V19.125H29.5804C29.38 16.9104 28.4236 14.9145 26.9755 13.3868L31.1186 9.24362L29.8814 8.00638L25.6577 12.23C24.2892 11.2316 22.6539 10.5806 20.875 10.4196V6H19.125V10.4196C17.3461 10.5806 15.7107 11.2316 14.3422 12.23L10.1186 8.00638L8.88138 9.24362L13.0245 13.3868C11.5764 14.9145 10.62 16.9104 10.4196 19.125H6V20.875H10.4196C10.6401 23.3066 11.7715 25.474 13.4655 27.0473L8.88138 31.6314L10.1186 32.8686L14.862 28.1252C16.1185 28.9224 17.5666 29.4395 19.125 29.5804V34H20.875V29.5804C22.4334 29.4395 23.8815 28.9224 25.138 28.1252L29.8814 32.8686L31.1186 31.6314L26.5345 27.0473C28.2285 25.474 29.3599 23.3066 29.5804 20.875H34Z" fill="#FFF400"/>
</g>
<g filter="url(#filter1_f)">
<path fill-rule="evenodd" clip-rule="evenodd" d="M14.75 20H16.5C16.5 18.0697 18.0697 16.5 20 16.5V14.75C17.1046 14.75 14.75 17.1046 14.75 20Z" fill="#FFF400"/>
</g>
<path fill-rule="evenodd" clip-rule="evenodd" d="M20 27.875C15.6582 27.875 12.125 24.3418 12.125 20C12.125 15.6582 15.6582 12.125 20 12.125C24.3418 12.125 27.875 15.6582 27.875 20C27.875 24.3418 24.3418 27.875 20 27.875ZM34 20.875V19.125H29.5804C29.38 16.9104 28.4236 14.9145 26.9755 13.3868L31.1186 9.24362L29.8814 8.00638L25.6577 12.23C24.2892 11.2316 22.6539 10.5806 20.875 10.4196V6H19.125V10.4196C17.3461 10.5806 15.7107 11.2316 14.3422 12.23L10.1186 8.00638L8.88138 9.24362L13.0245 13.3868C11.5764 14.9145 10.62 16.9104 10.4196 19.125H6V20.875H10.4196C10.6401 23.3066 11.7715 25.474 13.4655 27.0473L8.88138 31.6314L10.1186 32.8686L14.862 28.1252C16.1185 28.9224 17.5666 29.4395 19.125 29.5804V34H20.875V29.5804C22.4334 29.4395 23.8815 28.9224 25.138 28.1252L29.8814 32.8686L31.1186 31.6314L26.5345 27.0473C28.2285 25.474 29.3599 23.3066 29.5804 20.875H34Z" fill="#FFF400"/>
<path fill-rule="evenodd" clip-rule="evenodd" d="M14.75 20H16.5C16.5 18.0697 18.0697 16.5 20 16.5V14.75C17.1046 14.75 14.75 17.1046 14.75 20Z" fill="#FFF400"/>
<defs>
<filter id="filter0_f" x="0.563437" y="0.563437" width="38.8731" height="38.8731" filterUnits="userSpaceOnUse" color-interpolation-filters="sRGB">
<feFlood flood-opacity="0" result="BackgroundImageFix"/>
<feBlend mode="normal" in="SourceGraphic" in2="BackgroundImageFix" result="shape"/>
<feGaussianBlur stdDeviation="2.71828" result="effect1_foregroundBlur"/>
</filter>
<filter id="filter1_f" x="9.31344" y="9.31344" width="16.1231" height="16.1231" filterUnits="userSpaceOnUse" color-interpolation-filters="sRGB">
<feFlood flood-opacity="0" result="BackgroundImageFix"/>
<feBlend mode="normal" in="SourceGraphic" in2="BackgroundImageFix" result="shape"/>
<feGaussianBlur stdDeviation="2.71828" result="effect1_foregroundBlur"/>
</filter>
</defs>
</svg>
