<svg width="18" height="17" viewBox="0 0 18 17" fill="none" xmlns="http://www.w3.org/2000/svg">
<path fill-rule="evenodd" clip-rule="evenodd" d="M9.13474 13.2812C6.49867 13.2812 4.35349 11.1361 4.35349 8.5C4.35349 5.86394 6.49867 3.71875 9.13474 3.71875C11.7708 3.71875 13.916 5.86394 13.916 8.5C13.916 11.1361 11.7708 13.2812 9.13474 13.2812ZM17.6347 9.03125V7.96875H14.9514C14.8297 6.62416 14.2491 5.41238 13.3699 4.48481L15.8853 1.96934L15.1341 1.21816L12.5698 3.7825C11.7389 3.17634 10.746 2.78109 9.66599 2.68334V0H8.60349V2.68334C7.52345 2.78109 6.53055 3.17634 5.69967 3.7825L3.13533 1.21816L2.38414 1.96934L4.89961 4.48481C4.02039 5.41238 3.43973 6.62416 3.31808 7.96875H0.634735V9.03125H3.31808C3.45195 10.5076 4.13886 11.8235 5.16736 12.7787L2.38414 15.5619L3.13533 16.3131L6.01523 13.4332C6.77811 13.9172 7.65733 14.2311 8.60349 14.3167V17H9.66599V14.3167C10.6121 14.2311 11.4914 13.9172 12.2542 13.4332L15.1341 16.3131L15.8853 15.5619L13.1021 12.7787C14.1306 11.8235 14.8175 10.5076 14.9514 9.03125H17.6347Z" fill="#FFF400"/>
<path fill-rule="evenodd" clip-rule="evenodd" d="M5.94724 8.5H7.00974C7.00974 7.32806 7.9628 6.375 9.13474 6.375V5.3125C7.37683 5.3125 5.94724 6.74209 5.94724 8.5Z" fill="#FFF400"/>
</svg>
