<svg width="24" height="24" viewBox="0 0 24 24" fill="none" xmlns="http://www.w3.org/2000/svg">
<path fill-rule="evenodd" clip-rule="evenodd" d="M1.06494 12.0002C1.06494 18.0179 5.95024 22.9355 12.0002 22.9355C18.0502 22.9355 22.9355 18.0502 22.9355 12.0002C22.9355 5.95024 18.0502 1.06494 12.0002 1.06494C5.95024 1.06494 1.06494 5.98259 1.06494 12.0002ZM12.0002 21.8355C9.37965 21.8355 6.98553 20.8002 5.20612 19.0855C5.20612 18.3738 5.36788 17.4032 6.20906 17.2091C7.53553 16.8855 8.47377 16.4973 9.18553 16.1091C9.80024 17.0473 10.8679 17.6296 12.0326 17.6296C13.1973 17.6296 14.2973 17.0149 14.912 16.0444C15.6238 16.4326 16.6267 16.8532 18.0179 17.2091C18.6973 17.3708 19.0208 17.9532 19.0208 18.8914C17.2414 20.7032 14.7502 21.8355 12.0002 21.8355ZM12.0649 13.6179C12.9061 13.6179 13.5532 13.3591 14.0385 12.8091C15.2355 11.4179 14.9767 8.82965 14.9444 8.79729V8.76494C14.8149 5.75612 12.4855 5.69141 12.0326 5.72376H12.0002H11.9032C11.2885 5.72376 9.21788 5.95024 9.08847 8.76494V8.79729C9.08847 8.79871 9.08791 8.8051 9.08695 8.81613C9.06587 9.0569 8.85117 11.5098 10.0267 12.8091C10.512 13.3267 11.1591 13.6179 12.0002 13.6179H12.0326H12.0649ZM10.9326 14.5561C11.2561 14.6532 11.612 14.6855 11.9679 14.6855H12.0002H12.0326H12.0649H12.0973C12.5179 14.6855 12.9061 14.6208 13.262 14.5238C13.3914 14.7826 13.6179 15.1061 14.0385 15.462C13.6179 16.1414 12.8738 16.5944 12.0326 16.5944C11.2561 16.5944 10.512 16.2061 10.0914 15.5591C10.5444 15.1708 10.8032 14.8473 10.9326 14.5561ZM21.8355 12.0002C21.8355 6.56494 17.4355 2.16494 12.0002 2.16494C6.56494 2.16494 2.16494 6.56494 2.13259 12.0326C2.13259 14.3296 2.90906 16.4002 4.20318 18.0826C4.42965 17.0796 5.04435 16.4326 5.91788 16.2061C8.79729 15.462 9.67082 14.5561 9.92965 14.1355C9.87581 14.0894 9.82014 14.0432 9.76395 13.9967C9.58377 13.8473 9.3982 13.6935 9.25024 13.5208C7.762 11.8385 7.98847 8.99141 8.02082 8.70024C8.18259 5.40024 10.6091 4.62376 12.0326 4.65612C13.4561 4.59141 15.8826 5.40024 16.0444 8.70024C16.0444 8.72399 16.0461 8.76476 16.0484 8.82051C16.075 9.4482 16.1818 11.9757 14.8149 13.5208C14.6532 13.7149 14.4591 13.8767 14.2326 14.0385C14.4267 14.4591 15.2355 15.3973 18.2767 16.1738C19.1502 16.4002 19.7002 16.9502 19.9591 17.7914C21.1238 16.1738 21.8355 14.1679 21.8355 12.0002Z" fill="#697F9C"/>
<path d="M5.20612 19.0855H4.95612V19.1918L5.03264 19.2655L5.20612 19.0855ZM6.20906 17.2091L6.26528 17.4527L6.2683 17.4519L6.20906 17.2091ZM9.18553 16.1091L9.39464 15.9721L9.26827 15.7792L9.06582 15.8896L9.18553 16.1091ZM14.912 16.0444L15.0317 15.8249L14.8261 15.7127L14.7008 15.9106L14.912 16.0444ZM18.0179 17.2091L17.9559 17.4513L17.96 17.4523L18.0179 17.2091ZM19.0208 18.8914L19.1992 19.0666L19.2708 18.9936V18.8914H19.0208ZM14.0385 12.8091L14.2259 12.9745L14.228 12.9721L14.0385 12.8091ZM14.9444 8.79729H14.6944V8.90085L14.7676 8.97407L14.9444 8.79729ZM14.9444 8.76494H15.1946L15.1941 8.7542L14.9444 8.76494ZM12.0326 5.72376V5.97376H12.0415L12.0504 5.97313L12.0326 5.72376ZM9.08847 8.76494L8.83847 8.75345V8.76494H9.08847ZM9.08695 8.81613L8.8379 8.79433L8.8379 8.79433L9.08695 8.81613ZM10.0267 12.8091L9.84129 12.9768L9.84432 12.98L10.0267 12.8091ZM10.9326 14.5561L11.0044 14.3167L10.7935 14.2534L10.7041 14.4546L10.9326 14.5561ZM13.262 14.5238L13.4856 14.412L13.3939 14.2286L13.1962 14.2826L13.262 14.5238ZM14.0385 15.462L14.251 15.5936L14.3645 15.4104L14.2 15.2712L14.0385 15.462ZM10.0914 15.5591L9.92871 15.3692L9.76248 15.5117L9.8818 15.6953L10.0914 15.5591ZM2.13259 12.0326L1.88259 12.0311V12.0326H2.13259ZM4.20318 18.0826L4.00502 18.235L4.32973 18.6571L4.44704 18.1377L4.20318 18.0826ZM5.91788 16.2061L5.85533 15.9641L5.85514 15.9641L5.91788 16.2061ZM9.92965 14.1355L10.1426 14.2666L10.2545 14.0847L10.0923 13.9457L9.92965 14.1355ZM9.76395 13.9967L9.9235 13.8042L9.9235 13.8042L9.76395 13.9967ZM9.25024 13.5208L9.44007 13.3581L9.43748 13.3552L9.25024 13.5208ZM8.02082 8.70024L8.26929 8.72784L8.27015 8.72018L8.27052 8.71248L8.02082 8.70024ZM12.0326 4.65612L12.0269 4.90605L12.0354 4.90625L12.0439 4.90586L12.0326 4.65612ZM16.0444 8.70024H16.2947L16.2941 8.688L16.0444 8.70024ZM16.0484 8.82051L16.2982 8.80996V8.80996L16.0484 8.82051ZM14.8149 13.5208L14.6276 13.3551L14.6229 13.3608L14.8149 13.5208ZM14.2326 14.0385L14.0873 13.835L13.9189 13.9553L14.0056 14.1432L14.2326 14.0385ZM18.2767 16.1738L18.3394 15.9318L18.3386 15.9315L18.2767 16.1738ZM19.9591 17.7914L19.7201 17.8649L19.868 18.3457L20.1619 17.9375L19.9591 17.7914ZM12.0002 22.6855C6.08879 22.6855 1.31494 17.8803 1.31494 12.0002H0.814941C0.814941 18.1555 5.81168 23.1855 12.0002 23.1855V22.6855ZM22.6855 12.0002C22.6855 17.9122 17.9122 22.6855 12.0002 22.6855V23.1855C18.1883 23.1855 23.1855 18.1883 23.1855 12.0002H22.6855ZM12.0002 1.31494C17.9122 1.31494 22.6855 6.08831 22.6855 12.0002H23.1855C23.1855 5.81216 18.1883 0.814941 12.0002 0.814941V1.31494ZM1.31494 12.0002C1.31494 6.12018 6.08879 1.31494 12.0002 1.31494V0.814941C5.81168 0.814941 0.814941 5.845 0.814941 12.0002H1.31494ZM5.03264 19.2655C6.85673 21.0233 9.31233 22.0855 12.0002 22.0855V21.5855C9.44696 21.5855 7.11433 20.5772 5.37959 18.9055L5.03264 19.2655ZM6.15284 16.9655C5.63076 17.0859 5.32722 17.4516 5.16076 17.8585C4.99733 18.258 4.95612 18.716 4.95612 19.0855H5.45612C5.45612 18.7432 5.49579 18.3601 5.62353 18.0478C5.74825 17.743 5.94618 17.5263 6.26527 17.4527L6.15284 16.9655ZM9.06582 15.8896C8.37484 16.2665 7.45721 16.6473 6.14982 16.9662L6.2683 17.4519C7.61385 17.1238 8.57269 16.7281 9.30524 16.3285L9.06582 15.8896ZM12.0326 17.3796C10.9513 17.3796 9.96265 16.839 9.39464 15.9721L8.97641 16.2461C9.63782 17.2556 10.7845 17.8796 12.0326 17.8796V17.3796ZM14.7008 15.9106C14.1315 16.8094 13.1109 17.3796 12.0326 17.3796V17.8796C13.2837 17.8796 14.4631 17.2205 15.1232 16.1781L14.7008 15.9106ZM18.0798 16.9669C16.7066 16.6156 15.7233 16.2021 15.0317 15.8249L14.7923 16.2638C15.5242 16.6631 16.5469 17.0908 17.9559 17.4513L18.0798 16.9669ZM19.2708 18.8914C19.2708 18.3974 19.1863 17.968 18.9899 17.6327C18.7885 17.2889 18.4796 17.062 18.0758 16.9659L17.96 17.4523C18.2355 17.5179 18.4282 17.6631 18.5584 17.8854C18.6936 18.1163 18.7708 18.4472 18.7708 18.8914H19.2708ZM12.0002 22.0855C14.8201 22.0855 17.3747 20.9242 19.1992 19.0666L18.8425 18.7162C17.1081 20.4821 14.6804 21.5855 12.0002 21.5855V22.0855ZM13.851 12.6437C13.4218 13.1301 12.8485 13.3679 12.0649 13.3679V13.8679C12.9638 13.8679 13.6846 13.588 14.2259 12.9745L13.851 12.6437ZM14.7676 8.97407C14.7394 8.94588 14.7253 8.9179 14.7212 8.90972C14.7154 8.89788 14.7118 8.88821 14.7101 8.88337C14.7067 8.87355 14.705 8.86656 14.7048 8.86561C14.7041 8.86276 14.7046 8.8641 14.7058 8.872C14.7082 8.88667 14.7115 8.9117 14.7151 8.94735C14.7223 9.0179 14.7301 9.12168 14.735 9.25154C14.7447 9.51126 14.7428 9.86983 14.7036 10.2692C14.6244 11.0778 14.3967 12.0095 13.849 12.646L14.228 12.9721C14.8773 12.2175 15.1188 11.1594 15.2012 10.318C15.243 9.89241 15.2451 9.51091 15.2346 9.23276C15.2294 9.09368 15.221 8.97908 15.2125 8.89646C15.2083 8.85552 15.2039 8.82027 15.1995 8.7928C15.1974 8.77962 15.1947 8.76442 15.1912 8.7498C15.1896 8.74295 15.1866 8.73126 15.182 8.71796C15.1796 8.71139 15.1755 8.70029 15.1691 8.68731C15.1644 8.67801 15.1498 8.64922 15.1211 8.62052L14.7676 8.97407ZM14.6944 8.76494V8.79729H15.1944V8.76494H14.6944ZM12.0504 5.97313C12.2501 5.95887 12.8879 5.96673 13.4823 6.31898C14.0576 6.65988 14.6331 7.34695 14.6946 8.77568L15.1941 8.7542C15.1262 7.1741 14.4723 6.32441 13.7372 5.88884C13.0214 5.46462 12.268 5.45631 12.0148 5.4744L12.0504 5.97313ZM12.0002 5.97376H12.0326V5.47376H12.0002V5.97376ZM11.9032 5.97376H12.0002V5.47376H11.9032V5.97376ZM9.33821 8.77642C9.3997 7.43899 9.91561 6.75597 10.4528 6.39664C11.0049 6.02738 11.619 5.97376 11.9032 5.97376V5.47376C11.5726 5.47376 10.8441 5.53339 10.1748 5.98104C9.49074 6.43862 8.90666 7.27619 8.83874 8.75346L9.33821 8.77642ZM9.33847 8.79729V8.76494H8.83847V8.79729H9.33847ZM9.33599 8.83794C9.33645 8.83269 9.3369 8.8276 9.33722 8.82369C9.33738 8.82177 9.33759 8.81922 9.33777 8.81663C9.33786 8.81534 9.33799 8.81333 9.33811 8.81097C9.33819 8.80948 9.33847 8.80407 9.33847 8.79729H8.83847C8.83847 8.7936 8.83856 8.79069 8.83861 8.78913C8.83867 8.7874 8.83873 8.78602 8.83878 8.78514C8.83887 8.78345 8.83895 8.78226 8.83897 8.78194C8.83902 8.78129 8.83902 8.78129 8.83892 8.78253C8.83872 8.78492 8.83841 8.78854 8.8379 8.79433L9.33599 8.83794ZM10.2121 12.6413C9.67746 12.0504 9.44527 11.1766 9.35653 10.3877C9.26868 9.60675 9.32594 8.95282 9.33599 8.83793L8.8379 8.79433C8.82688 8.9202 8.76625 9.6131 8.85966 10.4436C8.95219 11.2662 9.20042 12.2684 9.84132 12.9768L10.2121 12.6413ZM12.0002 13.3679C11.224 13.3679 10.6443 13.1023 10.2091 12.6381L9.84432 12.98C10.3797 13.5511 11.0942 13.8679 12.0002 13.8679V13.3679ZM12.0326 13.3679H12.0002V13.8679H12.0326V13.3679ZM12.0649 13.3679H12.0326V13.8679H12.0649V13.3679ZM11.9679 14.4355C11.6252 14.4355 11.296 14.4041 11.0044 14.3167L10.8608 14.7956C11.2163 14.9022 11.5988 14.9355 11.9679 14.9355V14.4355ZM12.0002 14.4355H11.9679V14.9355H12.0002V14.4355ZM12.0326 14.4355H12.0002V14.9355H12.0326V14.4355ZM12.0649 14.4355H12.0326V14.9355H12.0649V14.4355ZM12.0973 14.4355H12.0649V14.9355H12.0973V14.4355ZM13.1962 14.2826C12.8578 14.3749 12.4919 14.4355 12.0973 14.4355V14.9355C12.5439 14.9355 12.9544 14.8668 13.3278 14.765L13.1962 14.2826ZM14.2 15.2712C13.8038 14.9359 13.599 14.6388 13.4856 14.412L13.0384 14.6356C13.1838 14.9263 13.432 15.2763 13.877 15.6528L14.2 15.2712ZM12.0326 16.8444C12.9659 16.8444 13.7879 16.3418 14.251 15.5936L13.8259 15.3304C13.4479 15.941 12.7817 16.3444 12.0326 16.3444V16.8444ZM9.8818 15.6953C10.3505 16.4164 11.1752 16.8444 12.0326 16.8444V16.3444C11.337 16.3444 10.6735 15.9958 10.301 15.4228L9.8818 15.6953ZM10.7041 14.4546C10.5962 14.6974 10.3685 14.9923 9.92871 15.3692L10.2541 15.7489C10.7202 15.3494 11.0101 14.9972 11.161 14.6577L10.7041 14.4546ZM12.0002 2.41494C17.2975 2.41494 21.5855 6.70301 21.5855 12.0002H22.0855C22.0855 6.42687 17.5736 1.91494 12.0002 1.91494V2.41494ZM2.38258 12.0341C2.41413 6.70252 6.70382 2.41494 12.0002 2.41494V1.91494C6.42606 1.91494 1.91575 6.42736 1.88259 12.0311L2.38258 12.0341ZM4.40133 17.9302C3.1388 16.2889 2.38259 14.2713 2.38259 12.0326H1.88259C1.88259 14.388 2.67932 16.5116 4.00502 18.235L4.40133 17.9302ZM5.85514 15.9641C4.88205 16.2164 4.20428 16.9427 3.95932 18.0275L4.44704 18.1377C4.65501 17.2166 5.20666 16.6488 5.98062 16.4481L5.85514 15.9641ZM9.71673 14.0045C9.50665 14.3459 8.70642 15.2273 5.85533 15.9641L5.98043 16.4482C8.88817 15.6967 9.83499 14.7664 10.1426 14.2666L9.71673 14.0045ZM9.60439 14.1891C9.66088 14.2359 9.71494 14.2808 9.76695 14.3253L10.0923 13.9457C10.0367 13.898 9.9794 13.8505 9.9235 13.8042L9.60439 14.1891ZM9.06042 13.6835C9.22473 13.8752 9.4276 14.0426 9.6044 14.1891L9.9235 13.8042C9.73994 13.652 9.57168 13.5117 9.44005 13.3581L9.06042 13.6835ZM7.77235 8.67263C7.75464 8.832 7.68875 9.63755 7.81742 10.6213C7.94554 11.6007 8.27089 12.7911 9.06299 13.6865L9.43748 13.3552C8.74135 12.5682 8.43582 11.4938 8.3132 10.5564C8.19113 9.62321 8.25465 8.85964 8.26929 8.72784L7.77235 8.67263ZM12.0383 4.40618C11.2848 4.38906 10.2635 4.58465 9.4037 5.22842C8.53397 5.87963 7.85531 6.97056 7.77112 8.68799L8.27052 8.71248C8.3481 7.12991 8.96356 6.1826 9.70338 5.62866C10.4531 5.0673 11.3568 4.89082 12.0269 4.90605L12.0383 4.40618ZM16.2941 8.688C16.2099 6.97095 15.5315 5.87212 14.6621 5.21677C13.8022 4.56863 12.7793 4.37192 12.0212 4.40638L12.0439 4.90586C12.7094 4.87561 13.6115 5.05096 14.3612 5.61605C15.1013 6.17394 15.7171 7.12952 15.7947 8.71248L16.2941 8.688ZM16.2982 8.80996C16.2957 8.75101 16.2944 8.71726 16.2944 8.70024H15.7944C15.7944 8.73072 15.7964 8.7785 15.7987 8.83107L16.2982 8.80996ZM15.0022 13.6865C15.7307 12.8629 16.0569 11.7906 16.2012 10.8651C16.346 9.93604 16.3116 9.12669 16.2982 8.80996L15.7987 8.83107C15.8118 9.14203 15.844 9.91028 15.7072 10.7881C15.5698 11.6696 15.266 12.6337 14.6277 13.3552L15.0022 13.6865ZM14.3779 14.2419C14.6128 14.0741 14.826 13.8981 15.007 13.6809L14.6229 13.3608C14.4804 13.5318 14.3053 13.6793 14.0873 13.835L14.3779 14.2419ZM18.3386 15.9315C15.3178 15.1603 14.6049 14.2485 14.4596 13.9337L14.0056 14.1432C14.2485 14.6696 15.1533 15.6343 18.2149 16.416L18.3386 15.9315ZM20.198 17.7179C19.9145 16.7966 19.2998 16.1807 18.3394 15.9318L18.214 16.4158C19.0007 16.6197 19.4859 17.1039 19.7201 17.8649L20.198 17.7179ZM21.5855 12.0002C21.5855 14.1125 20.892 16.0678 19.7562 17.6453L20.1619 17.9375C21.3555 16.2797 22.0855 14.2232 22.0855 12.0002H21.5855Z" fill="#697F9C"/>
</svg>
