<svg width="18" height="14" viewBox="0 0 18 14" fill="none" xmlns="http://www.w3.org/2000/svg">
<path fill-rule="evenodd" clip-rule="evenodd" d="M13.6684 0.0185547C12.7011 0.0185547 11.7734 0.40283 11.0893 1.08684C10.4053 1.77086 10.0211 2.69858 10.0211 3.66592H11.4947C11.4947 2.46543 12.4679 1.49224 13.6684 1.49224C14.8689 1.49224 15.8421 2.46543 15.8421 3.66592C15.8421 4.86642 14.8689 5.83961 13.6684 5.83961H0V7.31329H13.6684C15.6828 7.31329 17.3158 5.68031 17.3158 3.66592C17.3158 1.65154 15.6828 0.0185547 13.6684 0.0185547Z" fill="#697F9C"/>
<path fill-rule="evenodd" clip-rule="evenodd" d="M8.91579 2.79963C8.9963 1.87022 8.54598 0.97482 7.75184 0.485303C6.95771 -0.00421545 5.95545 -0.00421545 5.16131 0.485303C4.36718 0.97482 3.91685 1.87022 3.99737 2.79963H5.47105C5.47112 2.39563 5.71552 2.0318 6.0895 1.87898C6.46347 1.72615 6.89273 1.81469 7.17572 2.10301C7.4587 2.39134 7.5392 2.82218 7.37941 3.19323C7.21963 3.56428 6.85129 3.80184 6.44737 3.79436H0V5.26805H6.44737C7.10203 5.26805 7.72989 5.00798 8.19281 4.54506C8.65572 4.08214 8.91579 3.45429 8.91579 2.79963Z" fill="#697F9C"/>
<path fill-rule="evenodd" clip-rule="evenodd" d="M9.78158 10.9792C9.84585 11.5621 9.57106 12.1304 9.07426 12.442C8.57747 12.7536 7.94622 12.7536 7.44942 12.442C6.95263 12.1304 6.67783 11.5621 6.74211 10.9792H5.26842C5.26842 12.6375 6.61274 13.9818 8.27105 13.9818C9.92936 13.9818 11.2737 12.6375 11.2737 10.9792C11.2737 9.32089 9.92936 7.97656 8.27105 7.97656H0V9.45025H8.27105C9.10826 9.46033 9.78164 10.1419 9.78158 10.9792Z" fill="#697F9C"/>
</svg>
